<svg xmlns="http://www.w3.org/2000/svg" width="450.536" height="878.716" viewBox="0 0 450.536 878.716">
  <g id="Group_7265" data-name="Group 7265" transform="translate(45.369 -3681.75)">
    <g id="Group_7263" data-name="Group 7263">
      <path id="Path_3866" data-name="Path 3866" d="M-154.96,0h-128.4l-64.2,109.608,64.2,109.608h128.4l64.2-109.608Z" transform="translate(495.059 3682.5)" fill="#fff" stroke="#0f2b92" stroke-width="1.5"/>
      <text id="Mobile_Development" data-name="Mobile 
Development" transform="translate(272 3788)" fill="#ff611e" font-size="16" font-family="Usual-ExtraBold, Usual" font-weight="800"><tspan x="-29.768" y="0">Mobile </tspan><tspan x="-53.616" y="20">Development</tspan></text>
      <path id="Path_3876" data-name="Path 3876" d="M-154.96,0h-128.4l-64.2,109.608,64.2,109.608h128.4l64.2-109.608Z" transform="translate(303.059 3791.5)" fill="#fff" stroke="#0f2b92" stroke-width="1.5"/>
      <text id="Digital_Platforms" data-name="Digital 
Platforms" transform="translate(87 3897)" fill="#ff611e" font-size="16" font-family="Usual-ExtraBold, Usual" font-weight="800"><tspan x="-29.04" y="0">Digital </tspan><tspan x="-40.128" y="20">Platforms</tspan></text>
      <path id="Path_3874" data-name="Path 3874" d="M-154.96,0h-128.4l-64.2,109.608,64.2,109.608h128.4l64.2-109.608Z" transform="translate(303.059 4010.5)" fill="#fff" stroke="#0f2b92" stroke-width="1.5"/>
      <text id="Data_Intelligence" data-name="Data 
Intelligence" transform="translate(87 4117)" fill="#ff611e" font-size="16" font-family="Usual-ExtraBold, Usual" font-weight="800"><tspan x="-21.48" y="0">Data </tspan><tspan x="-46.872" y="20">Intelligence</tspan></text>
      <path id="Path_3868" data-name="Path 3868" d="M-51.653,0l-64.2,109.608,64.2,109.608h128.4l64.2-109.608L76.746,0Z" transform="translate(71.353 4230.5)" fill="#fff" stroke="#0f2b92" stroke-width="1.5"/>
      <text id="Mixed_Reality" data-name="Mixed 
Reality" transform="translate(87 4326)" fill="#ff611e" font-size="16" font-family="Usual-ExtraBold, Usual" font-weight="800"><tspan x="-26.728" y="0">Mixed </tspan><tspan x="-28.088" y="20">Reality</tspan></text>
      <path id="Path_3879" data-name="Path 3879" d="M-154.96,0h-128.4l-64.2,109.608,64.2,109.608h128.4l64.2-109.608Z" transform="translate(495.059 4340.5)" fill="#fff" stroke="#0f2b92" stroke-width="1.5"/>
      <text id="Blockchain" transform="translate(272 4456)" fill="#ff611e" font-size="16" font-family="Usual-ExtraBold, Usual" font-weight="800"><tspan x="-44.04" y="0">Blockchain</tspan></text>
      <path id="Path_3882" data-name="Path 3882" d="M-154.96,0h-128.4l-64.2,109.608,64.2,109.608h128.4l64.2-109.608Z" transform="translate(495.059 4120.5)" fill="#fff" stroke="#0f2b92" stroke-width="1.5"/>
      <text id="IoT" transform="translate(272 4237)" fill="#ff611e" font-size="16" font-family="Usual-ExtraBold, Usual" font-weight="800"><tspan x="-12.488" y="0">IoT</tspan></text>
      <path id="Path_3871" data-name="Path 3871" d="M-154.96,0h-128.4l-64.2,109.608,64.2,109.608h128.4l64.2-109.608Z" transform="translate(495.059 3901.5)" fill="#fff" stroke="#0f2b92" stroke-width="1.5"/>
      <text id="Innovation_and_Design" data-name="Innovation 
and Design" transform="translate(272 4008)" fill="#ff611e" font-size="16" font-family="Usual-ExtraBold, Usual" font-weight="800"><tspan x="-44.848" y="0">Innovation </tspan><tspan x="-45.36" y="20">and Design</tspan></text>
    </g>
  </g>
</svg>
