<svg xmlns="http://www.w3.org/2000/svg" xmlns:xlink="http://www.w3.org/1999/xlink" width="1206.554" height="951.584" viewBox="0 0 1206.554 951.584">
  <defs>
    <clipPath id="clip-path">
      <path id="Path_3870" data-name="Path 3870" d="M0-197.886H1206.554V-991.7H0Z" transform="translate(0 991.701)" fill="none"/>
    </clipPath>
  </defs>
  <g id="Group_7259" data-name="Group 7259" transform="translate(-194 -3549.071)">
    <g id="Group_7126" data-name="Group 7126" transform="translate(473 4184)">
      <path id="Path_3871" data-name="Path 3871" d="M-69.353,0H-254.824l-92.735,158.327,92.735,158.328H-69.353L23.383,158.327Z" transform="translate(347.559)" fill="#fff"/>
    </g>
    <g id="Group_7121" data-name="Group 7121" transform="translate(473 3867)">
      <path id="Path_3866" data-name="Path 3866" d="M-69.353,0H-254.824l-92.735,158.327,92.735,158.328H-69.353L23.383,158.327Z" transform="translate(347.559)" fill="#fff"/>
    </g>
    <g id="Group_7123" data-name="Group 7123" transform="translate(750 4025)">
      <path id="Path_3868" data-name="Path 3868" d="M-23.118,0l-92.735,158.328,92.735,158.327H162.353l92.735-158.327L162.353,0Z" transform="translate(115.853)" fill="#fff"/>
    </g>
    <g id="Group_7129" data-name="Group 7129" transform="translate(751 3709)">
      <path id="Path_3874" data-name="Path 3874" d="M-69.353,0H-254.824l-92.735,158.327,92.735,158.328H-69.353L23.383,158.327Z" transform="translate(347.559)" fill="#fff"/>
    </g>
    <g id="Group_7131" data-name="Group 7131" transform="translate(195 4025)">
      <path id="Path_3876" data-name="Path 3876" d="M-69.353,0H-254.824l-92.735,158.327,92.735,158.328H-69.353L23.383,158.327Z" transform="translate(347.559)" fill="#fff"/>
    </g>
    <g id="Group_7134" data-name="Group 7134" transform="translate(1029 3868)">
      <path id="Path_3879" data-name="Path 3879" d="M-69.353,0H-254.824l-92.735,158.327,92.735,158.328H-69.353L23.383,158.327Z" transform="translate(347.559)" fill="#fff"/>
    </g>
    <g id="Group_7137" data-name="Group 7137" transform="translate(1029 3550)">
      <path id="Path_3882" data-name="Path 3882" d="M-69.353,0H-254.824l-92.735,158.327,92.735,158.328H-69.353L23.383,158.327Z" transform="translate(347.559)" fill="#fff"/>
    </g>
    <text id="Plataformas_Digitais" data-name="Plataformas 
Digitais" transform="translate(380 4176)" fill="#ff611e" font-size="24" font-family="Usual-ExtraBold, Usual" font-weight="800"><tspan x="-77.76" y="0">Plataformas </tspan><tspan x="-46.86" y="34">Digitais</tspan></text>
    <text id="Inteligência_de_dados" data-name="Inteligência 
de dados" transform="translate(936 3860)" fill="#ff611e" font-size="24" font-family="Usual-ExtraBold, Usual" font-weight="800"><tspan x="-73.704" y="0">Inteligência </tspan><tspan x="-55.26" y="34">de dados</tspan></text>
    <text id="Realidade_Aumentada_Virtual" data-name="Realidade 
Aumentada/Virtual" transform="translate(935 4176)" fill="#ff611e" font-size="24" font-family="Usual-ExtraBold, Usual" font-weight="800"><tspan x="-63.168" y="0">Realidade </tspan><tspan x="-117.036" y="34">Aumentada/Virtual</tspan></text>
    <text id="Blockchain" transform="translate(1214 4036)" fill="#ff611e" font-size="24" font-family="Usual-ExtraBold, Usual" font-weight="800"><tspan x="-66.06" y="0">Blockchain</tspan></text>
    <text id="Sensores_e_IoT" data-name="Sensores 
e IoT" transform="translate(1214 3701)" fill="#ff611e" font-size="24" font-family="Usual-ExtraBold, Usual" font-weight="800"><tspan x="-59.244" y="0">Sensores </tspan><tspan x="-29.244" y="34">e IoT</tspan></text>
    <text id="Desenvolvimento_Mobile" data-name="Desenvolvimento 
Mobile" transform="translate(658 4018)" fill="#ff611e" font-size="24" font-family="Usual-ExtraBold, Usual" font-weight="800"><tspan x="-108.372" y="0">Desenvolvimento </tspan><tspan x="-41.256" y="34">Mobile</tspan></text>
    <text id="Inovação_e_Design" data-name="Inovação e 
Design" transform="translate(658 4335)" fill="#ff611e" font-size="24" font-family="Usual-ExtraBold, Usual" font-weight="800"><tspan x="-68.004" y="0">Inovação e </tspan><tspan x="-42.192" y="34">Design</tspan></text>
    <g id="Group_7122" data-name="Group 7122" transform="translate(472.783 3866.574)">
      <path id="Path_3867" data-name="Path 3867" d="M-69.353,0H-254.824l-92.735,158.327,92.735,158.328H-69.353L23.383,158.327Z" transform="translate(347.559)" fill="none" stroke="#0f2b92" stroke-width="1.887"/>
    </g>
    <g id="Group_7125" data-name="Group 7125" transform="translate(194 3549.071)" clip-path="url(#clip-path)">
      <g id="Group_7124" data-name="Group 7124" transform="translate(556.459 476.404)">
        <path id="Path_3869" data-name="Path 3869" d="M-69.353,0H-254.824l-92.735,158.327,92.735,158.328H-69.353L23.383,158.327Z" transform="translate(347.559)" fill="none" stroke="#0f2b92" stroke-width="1.887"/>
      </g>
    </g>
    <g id="Group_7128" data-name="Group 7128" transform="translate(194 3549.071)" clip-path="url(#clip-path)">
      <g id="Group_7127" data-name="Group 7127" transform="translate(278.566 634.717)">
        <path id="Path_3872" data-name="Path 3872" d="M-69.353,0H-254.824l-92.735,158.327,92.735,158.328H-69.353L23.383,158.327Z" transform="translate(347.559)" fill="none" stroke="#0f2b92" stroke-width="1.887"/>
      </g>
    </g>
    <g id="Group_7130" data-name="Group 7130" transform="translate(751.299 3708.706)">
      <path id="Path_3875" data-name="Path 3875" d="M-69.353,0H-254.824l-92.735,158.327,92.735,158.328H-69.353L23.383,158.327Z" transform="translate(347.559)" fill="none" stroke="#0f2b92" stroke-width="1.887"/>
    </g>
    <g id="Group_7133" data-name="Group 7133" transform="translate(194 3549.071)" clip-path="url(#clip-path)">
      <g id="Group_7132" data-name="Group 7132" transform="translate(0.875 475.648)">
        <path id="Path_3877" data-name="Path 3877" d="M-69.353,0H-254.824l-92.735,158.327,92.735,158.328H-69.353L23.383,158.327Z" transform="translate(347.559)" fill="none" stroke="#0f2b92" stroke-width="1.887"/>
      </g>
    </g>
    <g id="Group_7136" data-name="Group 7136" transform="translate(194 3549.071)" clip-path="url(#clip-path)">
      <g id="Group_7135" data-name="Group 7135" transform="translate(834.737 318.498)">
        <path id="Path_3880" data-name="Path 3880" d="M-69.353,0H-254.824l-92.735,158.327,92.735,158.328H-69.353L23.383,158.327Z" transform="translate(347.559)" fill="none" stroke="#0f2b92" stroke-width="1.887"/>
      </g>
    </g>
    <g id="Group_7139" data-name="Group 7139" transform="translate(194 3549.071)" clip-path="url(#clip-path)">
      <g id="Group_7138" data-name="Group 7138" transform="translate(834.737 1.332)">
        <path id="Path_3883" data-name="Path 3883" d="M-69.353,0H-254.824l-92.735,158.327,92.735,158.328H-69.353L23.383,158.327Z" transform="translate(347.559)" fill="none" stroke="#0f2b92" stroke-width="1.887"/>
      </g>
    </g>
  </g>
</svg>
