<svg xmlns="http://www.w3.org/2000/svg" width="450.536" height="878.716" viewBox="0 0 450.536 878.716">
  <g id="Group_7263" data-name="Group 7263" transform="translate(45.369 -3681.75)">
    <path id="Path_3866" data-name="Path 3866" d="M-154.96,0h-128.4l-64.2,109.608,64.2,109.608h128.4l64.2-109.608Z" transform="translate(495.059 3682.5)" fill="#fff" stroke="#0f2b92" stroke-width="1.5"/>
    <text id="Desenvolvimento_Mobile" data-name="Desenvolvimento 
Mobile" transform="translate(272 3788)" fill="#ff611e" font-size="16" font-family="Usual-ExtraBold, Usual" font-weight="800"><tspan x="-72.248" y="0">Desenvolvimento </tspan><tspan x="-27.504" y="20">Mobile</tspan></text>
    <path id="Path_3876" data-name="Path 3876" d="M-154.96,0h-128.4l-64.2,109.608,64.2,109.608h128.4l64.2-109.608Z" transform="translate(303.059 3791.5)" fill="#fff" stroke="#0f2b92" stroke-width="1.5"/>
    <text id="Plataformas_Digitais" data-name="Plataformas 
Digitais" transform="translate(87 3897)" fill="#ff611e" font-size="16" font-family="Usual-ExtraBold, Usual" font-weight="800"><tspan x="-51.84" y="0">Plataformas </tspan><tspan x="-31.24" y="20">Digitais</tspan></text>
    <path id="Path_3874" data-name="Path 3874" d="M-154.96,0h-128.4l-64.2,109.608,64.2,109.608h128.4l64.2-109.608Z" transform="translate(303.059 4010.5)" fill="#fff" stroke="#0f2b92" stroke-width="1.5"/>
    <text id="Inteligência_de_dados" data-name="Inteligência 
de dados" transform="translate(87 4117)" fill="#ff611e" font-size="16" font-family="Usual-ExtraBold, Usual" font-weight="800"><tspan x="-49.136" y="0">Inteligência </tspan><tspan x="-36.84" y="20">de dados</tspan></text>
    <path id="Path_3868" data-name="Path 3868" d="M-51.653,0l-64.2,109.608,64.2,109.608h128.4l64.2-109.608L76.746,0Z" transform="translate(71.353 4230.5)" fill="#fff" stroke="#0f2b92" stroke-width="1.5"/>
    <text id="Realidade_Aumentada_Virtual" data-name="Realidade 
Aumentada
/Virtual" transform="translate(87 4326)" fill="#ff611e" font-size="16" font-family="Usual-ExtraBold, Usual" font-weight="800"><tspan x="-42.112" y="0">Realidade </tspan><tspan x="-46.616" y="20">Aumentada</tspan><tspan x="-31.408" y="40">/Virtual</tspan></text>
    <path id="Path_3879" data-name="Path 3879" d="M-154.96,0h-128.4l-64.2,109.608,64.2,109.608h128.4l64.2-109.608Z" transform="translate(495.059 4340.5)" fill="#fff" stroke="#0f2b92" stroke-width="1.5"/>
    <text id="Blockchain" transform="translate(272 4456)" fill="#ff611e" font-size="16" font-family="Usual-ExtraBold, Usual" font-weight="800"><tspan x="-44.04" y="0">Blockchain</tspan></text>
    <path id="Path_3882" data-name="Path 3882" d="M-154.96,0h-128.4l-64.2,109.608,64.2,109.608h128.4l64.2-109.608Z" transform="translate(495.059 4120.5)" fill="#fff" stroke="#0f2b92" stroke-width="1.5"/>
    <text id="Sensores_e_IoT" data-name="Sensores 
e IoT" transform="translate(272 4227)" fill="#ff611e" font-size="16" font-family="Usual-ExtraBold, Usual" font-weight="800"><tspan x="-39.496" y="0">Sensores </tspan><tspan x="-19.496" y="20">e IoT</tspan></text>
    <path id="Path_3871" data-name="Path 3871" d="M-154.96,0h-128.4l-64.2,109.608,64.2,109.608h128.4l64.2-109.608Z" transform="translate(495.059 3901.5)" fill="#fff" stroke="#0f2b92" stroke-width="1.5"/>
    <text id="Inovação_e_Design" data-name="Inovação 
e Design" transform="translate(272 4008)" fill="#ff611e" font-size="16" font-family="Usual-ExtraBold, Usual" font-weight="800"><tspan x="-38.328" y="0">Inovação </tspan><tspan x="-35.136" y="20">e Design</tspan></text>
  </g>
</svg>
