<svg xmlns="http://www.w3.org/2000/svg" width="252.189" height="886.683" viewBox="0 0 252.189 886.683">
  <g id="Group_7256" data-name="Group 7256" transform="translate(-59 -2309.73)">
    <text id="Talent_pipeline" data-name="Talent pipeline" transform="translate(59 2333.73)" fill="#0f2b92" font-size="24" font-family="Usual-Bold, Usual" font-weight="700"><tspan x="0" y="0">Talent pipeline</tspan></text>
    <g id="Group_7229" data-name="Group 7229" transform="translate(627 -1312)">
      <rect id="Rectangle_2748" data-name="Rectangle 2748" width="382.681" height="107.277" transform="translate(-425.723 3893.098) rotate(90)" fill="#ff611e"/>
      <path id="Path_6692" data-name="Path 6692" d="M0,0H153.084l15.989,55.183-15.989,52.094H0l15.989-53.5Z" transform="translate(-425.723 4002.217) rotate(90)" fill="#ffac2d"/>
      <path id="Path_6700" data-name="Path 6700" d="M0,0H153.084l15.989,55.183-15.989,52.094H0l15.989-53.5Z" transform="translate(-425.723 3842.217) rotate(90)" fill="#ffac2d"/>
      <path id="Path_6701" data-name="Path 6701" d="M0,0H153.084l15.989,55.183-15.989,52.094H0l15.989-53.5Z" transform="translate(-425.723 4162.217) rotate(90)" fill="#ffac2d"/>
      <text id="Módulo_2" data-name="Módulo 2" transform="translate(-479 4093.129)" fill="#fff" font-size="15" font-family="Usual-Bold, Usual" font-weight="700"><tspan x="-35.302" y="0">Módulo 2</tspan></text>
      <text id="Módulo_3" data-name="Módulo 3" transform="translate(-479 4252.129)" fill="#fff" font-size="15" font-family="Usual-Bold, Usual" font-weight="700"><tspan x="-35.302" y="0">Módulo 3</tspan></text>
      <text id="Módulo_1" data-name="Módulo 1" transform="translate(-516 3933.129)" fill="#fff" font-size="16" font-family="Usual-Bold, Usual" font-weight="700"><tspan x="0" y="0">Módulo 1</tspan></text>
    </g>
    <text id="Tech_and_social_skills" data-name="Tech and 
social skills" transform="translate(222.189 2744.413)" fill="#0f2b92" font-size="16" font-family="Usual-Medium, Usual" font-weight="500"><tspan x="0" y="0">Tech and </tspan><tspan x="0" y="20">social skills</tspan></text>
    <text id="Qualified_workforce" data-name="Qualified 
workforce" transform="translate(147 3173.413)" fill="#0f2b92" font-size="16" font-family="Usual-Medium, Usual" font-weight="500"><tspan x="-37.624" y="0">Qualified </tspan><tspan x="-39.776" y="20">workforce</tspan></text>
    <g id="Group_7225" data-name="Group 7225" transform="translate(-940.131 -28)">
      <g id="Ellipse_1116" data-name="Ellipse 1116" transform="translate(1038.131 3068.847)" fill="#0f2b92" stroke="#0f2b92" stroke-width="4">
        <circle cx="49.475" cy="49.475" r="49.475" stroke="none"/>
        <circle cx="49.475" cy="49.475" r="47.475" fill="none"/>
      </g>
      <path id="Path_6690" data-name="Path 6690" d="M25.159,23.249a9.625,9.625,0,1,0-9.625-9.625A9.653,9.653,0,0,0,25.159,23.249Zm0,4.812c-6.5,0-19.249,3.128-19.249,9.625V42.5h38.5V37.687C44.408,31.19,31.655,28.062,25.159,28.062Z" transform="translate(1071.861 3095.203)" fill="#fff" stroke="#0f2b92" stroke-width="3"/>
      <path id="Path_6691" data-name="Path 6691" d="M27.18,25.271A10.635,10.635,0,1,0,16.544,14.635,10.667,10.667,0,0,0,27.18,25.271Zm0,5.318C20,30.588,5.909,34.045,5.909,41.224v5.318H48.451V41.224C48.451,34.045,34.359,30.588,27.18,30.588Z" transform="translate(1053.331 3091.16)" fill="#fff" stroke="#0f2b92" stroke-width="4"/>
      <g id="Ellipse_1117" data-name="Ellipse 1117" transform="translate(1045.914 3076.63)" fill="none" stroke="#ffac2d" stroke-width="1">
        <circle cx="41.878" cy="41.878" r="41.878" stroke="none"/>
        <circle cx="41.878" cy="41.878" r="41.378" fill="none"/>
      </g>
      <path id="Path_6696" data-name="Path 6696" d="M-7,0H45.625V10.292L43.4,17.048H-4.406L-7,10.63Z" transform="translate(1068.109 3144.079)" fill="#0f2b92"/>
      <g id="Group_7212" data-name="Group 7212">
        <g id="star" transform="translate(1084.086 3155.197)">
          <path id="Path_6695" data-name="Path 6695" d="M5.706,7.66,8,9.041l-.606-2.6L9.412,4.685,6.747,4.456,5.706,2,4.665,4.456,2,4.685,4.022,6.436l-.606,2.6Z" transform="translate(-2 -2)" fill="#ffac2d"/>
        </g>
        <g id="star-2" data-name="star" transform="translate(1093.723 3152.974)">
          <path id="Path_6695-2" data-name="Path 6695" d="M5.706,7.66,8,9.041l-.606-2.6L9.412,4.685,6.747,4.456,5.706,2,4.665,4.456,2,4.685,4.022,6.436l-.606,2.6Z" transform="translate(-2 -2)" fill="#ffac2d"/>
        </g>
        <g id="star-3" data-name="star" transform="translate(1103.357 3150.01)">
          <path id="Path_6695-3" data-name="Path 6695" d="M5.706,7.66,8,9.041l-.606-2.6L9.412,4.685,6.747,4.456,5.706,2,4.665,4.456,2,4.685,4.022,6.436l-.606,2.6Z" transform="translate(-2 -2)" fill="#ffac2d"/>
        </g>
        <g id="star-4" data-name="star" transform="translate(1074.45 3152.974)">
          <path id="Path_6695-4" data-name="Path 6695" d="M5.706,7.66,8,9.041l-.606-2.6L9.412,4.685,6.747,4.456,5.706,2,4.665,4.456,2,4.685,4.022,6.436l-.606,2.6Z" transform="translate(-2 -2)" fill="#ffac2d"/>
        </g>
        <g id="star-5" data-name="star" transform="translate(1064.815 3150.01)">
          <path id="Path_6695-5" data-name="Path 6695" d="M5.706,7.66,8,9.041l-.606-2.6L9.412,4.685,6.747,4.456,5.706,2,4.665,4.456,2,4.685,4.022,6.436l-.606,2.6Z" transform="translate(-2 -2)" fill="#ffac2d"/>
        </g>
      </g>
    </g>
    <text id="Tech_vision" data-name="Tech vision" transform="translate(104 2505.413)" fill="#0f2b92" font-size="16" font-family="Usual-Medium, Usual" font-weight="500"><tspan x="0" y="0">Tech vision</tspan></text>
    <g id="Group_7224" data-name="Group 7224" transform="translate(-125.774 -696)">
      <path id="Path_6689" data-name="Path 6689" d="M36-2.287c23.129-7.527,49.712,3.837,63.211,22.42s18.486,37.446,10.565,54.1S80.614,95.675,50.939,95.675,11.4,80.774,6.189,54.064,12.868,5.24,36-2.287Z" transform="translate(214.751 3073.486)" fill="#0f2b92"/>
      <g id="Path_6698" data-name="Path 6698" transform="translate(331.451 3117.373) rotate(131)" fill="none">
        <path d="M24.421,1.851C42.629-4.074,63.555,4.871,74.182,19.5S88.735,48.979,82.5,62.093,59.543,78.969,36.183,78.969,5.059,67.239.955,46.212,6.213,7.776,24.421,1.851Z" stroke="none"/>
        <path d="M 36.31533050537109 1 C 32.30219268798828 1 28.4044189453125 1.60626220703125 24.73025512695312 2.801963806152344 C 16.02605438232422 5.634590148925781 9.274017333984375 11.17975234985352 5.204093933105469 18.8380012512207 C 1.102119445800781 26.55657577514648 -0.02779388427734375 35.95623779296875 1.936531066894531 46.02081298828125 C 4.182220458984375 57.527099609375 7.306541442871094 64.85497283935547 12.06693267822266 69.78089141845703 C 14.71897888183594 72.52517700195312 17.88020324707031 74.51499938964844 21.73124313354492 75.86406707763672 C 25.77487945556641 77.28060150146484 30.50210571289062 77.96920013427734 36.18306732177734 77.96920013427734 C 42.321044921875 77.96920013427734 47.58844375610352 77.71195220947266 52.28628158569336 77.18275451660156 C 57.38164520263672 76.6087646484375 61.68807983398438 75.73075103759766 65.45168304443359 74.49852752685547 C 73.45433044433594 71.87840270996094 78.73514556884766 67.68003845214844 81.59587860107422 61.66352462768555 C 84.51531982421875 55.52357482910156 85.21848297119141 48.76419067382812 83.68580627441406 41.57313919067383 C 82.22705841064453 34.72890090942383 78.75724029541016 27.50027465820312 73.37273406982422 20.08806228637695 C 69.30513000488281 14.48870086669922 63.70899200439453 9.727935791015625 57.18931579589844 6.320472717285156 C 50.52954483032227 2.839790344238281 43.31143188476562 1 36.31533050537109 1 M 36.31532669067383 0 C 51.08660125732422 0 65.82106018066406 7.99114990234375 74.18179321289062 19.50033950805664 C 84.80878448486328 34.12924957275391 88.73452758789062 48.97881317138672 82.49899291992188 62.09293746948242 C 76.26344299316406 75.20709991455078 59.54344177246094 78.96920013427734 36.18306732177734 78.96920013427734 C 12.82267761230469 78.96920013427734 5.058853149414062 67.23911285400391 0.9550399780273438 46.21237564086914 C -3.148765563964844 25.18563842773438 6.212966918945312 7.776451110839844 24.42079162597656 1.851051330566406 C 28.30373764038086 0.5874176025390625 32.31138610839844 0 36.31532669067383 0 Z" stroke="none" fill="#fff"/>
      </g>
      <path id="Path_6697" data-name="Path 6697" d="M22.7,4.5A23.243,23.243,0,0,0,1,19.3a23.312,23.312,0,0,0,43.4,0A23.243,23.243,0,0,0,22.7,4.5Zm0,24.66A9.864,9.864,0,1,1,32.565,19.3,9.768,9.768,0,0,1,22.7,29.16Zm0-15.782A5.813,5.813,0,0,0,16.782,19.3a5.918,5.918,0,1,0,11.837,0A5.813,5.813,0,0,0,22.7,13.378Z" transform="translate(251.07 3104.384)" fill="#fff"/>
    </g>
  </g>
</svg>
