<svg xmlns="http://www.w3.org/2000/svg" width="32.756" height="32.756" viewBox="0 0 32.756 32.756">
  <path id="Path_29" data-name="Path 29" d="M17.4,32.756H1.843A1.835,1.835,0,0,1,0,30.913V1.843A1.835,1.835,0,0,1,1.843,0H30.913a1.835,1.835,0,0,1,1.843,1.843V30.913a1.835,1.835,0,0,1-1.843,1.843H22.52V20.063h4.3l.614-4.913H22.52V11.874c0-1.433.409-2.457,2.457-2.457h2.661v-4.3a23.508,23.508,0,0,0-3.89-.2A5.957,5.957,0,0,0,17.4,10.441V15.15H13.307v4.913h4.3l-.2,12.693Z" transform="translate(0 0)" fill="#f8f8f8"/>
</svg>
