<svg xmlns="http://www.w3.org/2000/svg" width="653.751" height="99.686" viewBox="0 0 653.751 99.686">
  <g id="Group_7145" data-name="Group 7145" transform="translate(-303 -3987.856)">
    <g id="Group_6902" data-name="Group 6902" transform="translate(303 3987.856)">
      <rect id="Rectangle_777" data-name="Rectangle 777" width="99.681" height="99.685" transform="translate(0 0)" fill="#e5243b"/>
      <path id="Path_3503" data-name="Path 3503" d="M104.765,200.29h.03v15.386h3.378v-20.1h-2.7l-3.112,3.646v3.527h.03Z" transform="translate(-90.847 -187.18)" fill="#fff"/>
      <g id="Group_6894" data-name="Group 6894" transform="translate(72.964 44.798)">
        <path id="Path_3504" data-name="Path 3504" d="M207.7,257.1a2.758,2.758,0,1,1,2.761,2.76,2.76,2.76,0,0,1-2.761-2.76" transform="translate(-203.899 -254.342)" fill="#fff"/>
        <path id="Path_3505" data-name="Path 3505" d="M211.349,264.961a3.677,3.677,0,0,1,3.34,3.665v7.65a1.069,1.069,0,0,1-2.139,0v-6.57c0-.246-.071-.58-.522-.58-.312,0-.376.33-.388.54v19.693a1.538,1.538,0,0,1-3.076,0V278.01a.417.417,0,0,0-.436-.45h0a.423.423,0,0,0-.444.45v11.348a1.536,1.536,0,1,1-3.072,0V269.666c-.011-.21-.077-.54-.387-.54-.453,0-.521.333-.521.58v6.57a1.069,1.069,0,0,1-2.139,0v-7.65a3.679,3.679,0,0,1,3.344-3.665,1.521,1.521,0,0,1,.2-.017h6.031a1.632,1.632,0,0,1,.21.017" transform="translate(-201.562 -258.377)" fill="#fff"/>
      </g>
      <g id="Group_6895" data-name="Group 6895" transform="translate(50.242 46.392)">
        <path id="Path_3506" data-name="Path 3506" d="M178,259.531a2.613,2.613,0,1,0-2.611,2.613A2.613,2.613,0,0,0,178,259.531" transform="translate(-167.885 -256.915)" fill="#fff"/>
        <path id="Path_3507" data-name="Path 3507" d="M167.12,269.438l-2.172,7.071s-.387,1.3.713,1.621,1.426-.942,1.426-.942l1.752-5.9s.1-.454.437-.356.213.583.213.583l-3.049,11.061h2.836V290.5a1.361,1.361,0,0,0,2.722,0v-7.922h.774V290.5a1.362,1.362,0,0,0,2.724,0v-7.922h2.834l-3.046-11.061s-.128-.486.212-.583.437.356.437.356l1.751,5.9s.333,1.266,1.426.942.713-1.621.713-1.621l-2.172-7.071s-.776-2.044-2.5-2.044h-5.538c-1.718,0-2.5,2.044-2.5,2.044" transform="translate(-164.881 -260.903)" fill="#fff"/>
      </g>
      <g id="Group_6896" data-name="Group 6896" transform="translate(34.591 46.392)">
        <path id="Path_3508" data-name="Path 3508" d="M152.734,259.531a2.612,2.612,0,1,0-2.612,2.613,2.614,2.614,0,0,0,2.612-2.613" transform="translate(-142.619 -256.915)" fill="#fff"/>
        <path id="Path_3509" data-name="Path 3509" d="M141.852,269.438l-2.17,7.071s-.388,1.3.712,1.621,1.426-.942,1.426-.942l1.752-5.9s.095-.454.436-.356.213.583.213.583l-3.048,11.061h2.835V290.5a1.362,1.362,0,0,0,2.723,0v-7.922h.774V290.5a1.361,1.361,0,0,0,2.722,0v-7.922h2.835l-3.046-11.061s-.129-.486.211-.583.437.356.437.356l1.75,5.9s.333,1.266,1.427.942.712-1.621.712-1.621l-2.172-7.071s-.774-2.044-2.494-2.044h-5.537c-1.718,0-2.5,2.044-2.5,2.044" transform="translate(-139.615 -260.903)" fill="#fff"/>
      </g>
      <g id="Group_6897" data-name="Group 6897" transform="translate(63.837 59.283)">
        <path id="Path_3510" data-name="Path 3510" d="M194.042,282.076a2.175,2.175,0,1,0-2.175-2.177,2.174,2.174,0,0,0,2.175,2.177" transform="translate(-188.746 -277.726)" fill="#fff"/>
        <path id="Path_3511" data-name="Path 3511" d="M186.91,292.028a.754.754,0,0,0,.317,1.029.725.725,0,0,0,.932-.3l1.182-3.771s.205-.253.205.009v8.877h.006a1.116,1.116,0,1,0,2.231,0v-3.5s-.064-.495.335-.495.338.495.338.495v3.5a1.118,1.118,0,0,0,2.236,0v-8.877c0-.261.138-.075.138-.075l.927,2.582a6.182,6.182,0,0,0,.527,1.2.825.825,0,0,0,1.078-.446.813.813,0,0,0-.088-.793l.007-.009c-.027-.083-1.385-3.415-1.545-3.883-.491-1.432-1.383-1.42-2.243-1.443s-1.375,0-1.375,0-.549-.022-1.685.011-1.491.616-2.741,3.834c-.178.463-.782,1.962-.79,2.052Z" transform="translate(-186.828 -280.921)" fill="#fff"/>
      </g>
      <g id="Group_6899" data-name="Group 6899" transform="translate(10.528 44.798)">
        <g id="Group_6898" data-name="Group 6898" transform="translate(1.516)">
          <path id="Path_3512" data-name="Path 3512" d="M114.879,257.1a2.759,2.759,0,1,0-2.762,2.76,2.762,2.762,0,0,0,2.762-2.76" transform="translate(-105.554 -254.342)" fill="#fff"/>
          <path id="Path_3513" data-name="Path 3513" d="M106.556,264.961a3.679,3.679,0,0,0-3.341,3.665v7.65a1.07,1.07,0,0,0,2.141,0v-6.57c0-.246.071-.58.522-.58.311,0,.375.33.389.54v19.693a1.536,1.536,0,1,0,3.072,0V278.01a.421.421,0,0,1,.439-.45h0a.422.422,0,0,1,.444.45v11.348a1.537,1.537,0,1,0,3.073,0V269.666c.009-.21.079-.54.388-.54.453,0,.521.333.521.58v6.57a1.07,1.07,0,0,0,2.14,0v-7.65A3.678,3.678,0,0,0,113,264.961a1.541,1.541,0,0,0-.2-.017h-6.031a1.642,1.642,0,0,0-.211.017" transform="translate(-103.215 -258.377)" fill="#fff"/>
        </g>
        <line id="Line_49" data-name="Line 49" x1="2.451" y2="12.989" transform="translate(0 19.011)" fill="none" stroke="#fff" stroke-linecap="round" stroke-miterlimit="10" stroke-width="1.307"/>
      </g>
      <g id="Group_6900" data-name="Group 6900" transform="translate(25.018 59.283)">
        <path id="Path_3514" data-name="Path 3514" d="M125.625,282.681a.792.792,0,0,0-1.464.419,1.439,1.439,0,0,0,.077.348l2.193,3.968a1.406,1.406,0,0,1,.134.523v8.521h0a1.071,1.071,0,1,0,2.141,0V293.1s-.061-.476.323-.476.323.476.323.476v3.362a1.073,1.073,0,0,0,2.147,0v-8.521a1.426,1.426,0,0,1,.132-.523l2.027-3.663a3.558,3.558,0,0,0,.248-.653.792.792,0,0,0-1.464-.419l-.009,0c-.063.054-1.078,1.863-1.414,2.2a.878.878,0,0,1-.671.318h-2.636a.878.878,0,0,1-.672-.318c-.339-.334-1.35-2.143-1.415-2.2Z" transform="translate(-124.161 -279.47)" fill="#fff"/>
        <path id="Path_3515" data-name="Path 3515" d="M130.693,282.076a2.175,2.175,0,1,0-2.174-2.177,2.173,2.173,0,0,0,2.174,2.177" transform="translate(-125.82 -277.726)" fill="#fff"/>
        <path id="Path_3516" data-name="Path 3516" d="M129.805,289.678l2.458,1.793,1.168,4.3h-7.256l1.171-4.3Z" transform="translate(-124.928 -282.274)" fill="#fff"/>
      </g>
      <g id="Group_6901" data-name="Group 6901" transform="translate(28.669 6.901)">
        <path id="Path_3517" data-name="Path 3517" d="M130.055,195.342h3.281v1.122h-1.906v2.34h1.363v1.109h-1.363V202.4h1.906v1.122h-3.281Z" transform="translate(-130.055 -193.992)" fill="#fff"/>
        <path id="Path_3518" data-name="Path 3518" d="M138.108,199.769v3.751h-1.375v-8.177h2c1.387,0,1.893.688,1.893,1.834v1.049c0,.88-.313,1.4-1.1,1.58l1.314,3.715H139.4Zm0-3.3v2.545h.458a.6.6,0,0,0,.675-.675v-1.206c0-.447-.2-.663-.675-.663Z" transform="translate(-132.596 -193.992)" fill="#fff"/>
        <path id="Path_3519" data-name="Path 3519" d="M145.8,199.769v3.751h-1.375v-8.177h2c1.387,0,1.894.688,1.894,1.834v1.049c0,.88-.313,1.4-1.1,1.58l1.314,3.715H147.09Zm0-3.3v2.545h.458a.6.6,0,0,0,.675-.675v-1.206c0-.447-.2-.663-.675-.663Z" transform="translate(-135.524 -193.992)" fill="#fff"/>
        <path id="Path_3520" data-name="Path 3520" d="M151.766,203.519l1.544-8.177h1.567l1.556,8.177h-1.411l-.253-1.5H153.31l-.242,1.5Zm1.725-2.593h1.1l-.543-3.281h-.012Z" transform="translate(-138.317 -193.992)" fill="#fff"/>
        <path id="Path_3521" data-name="Path 3521" d="M164.523,197.537v3.787c0,1.254-.519,2.2-1.99,2.2H160.41v-8.177h2.123C164,195.342,164.523,196.271,164.523,197.537Zm-2.159,4.86c.567,0,.784-.338.784-.832v-4.282a.717.717,0,0,0-.784-.82h-.579V202.4Z" transform="translate(-141.607 -193.992)" fill="#fff"/>
        <path id="Path_3522" data-name="Path 3522" d="M168.511,195.342h1.375v8.177h-1.375Z" transform="translate(-144.69 -193.992)" fill="#fff"/>
        <path id="Path_3523" data-name="Path 3523" d="M172.21,201.35v-3.956a1.929,1.929,0,0,1,2.05-2.206c1.52,0,1.942.844,1.942,2.05v.965h-1.254v-1.073c0-.507-.169-.8-.663-.8s-.7.35-.7.844v4.39c0,.494.2.844.7.844s.663-.313.663-.8v-1.508H176.2v1.411c0,1.17-.483,2.039-1.942,2.039A1.934,1.934,0,0,1,172.21,201.35Z" transform="translate(-146.098 -193.933)" fill="#fff"/>
        <path id="Path_3524" data-name="Path 3524" d="M179.513,203.519l1.544-8.177h1.567l1.556,8.177h-1.41l-.254-1.5h-1.459l-.242,1.5Zm1.724-2.593h1.1l-.543-3.281h-.012Z" transform="translate(-148.877 -193.992)" fill="#fff"/>
        <path id="Path_3525" data-name="Path 3525" d="M189.324,204.292c.386-.012.446-.1.446-.193s-.073-.133-.193-.133h-.061v-.447c-1.169-.144-1.653-1.025-1.653-2.171v-3.956a1.929,1.929,0,0,1,2.051-2.206c1.52,0,1.942.844,1.942,2.05v.965H190.6v-1.073c0-.507-.169-.8-.663-.8s-.7.35-.7.844v4.39c0,.494.205.844.7.844s.663-.313.663-.8v-1.508h1.255v1.411c0,1.146-.459,1.99-1.822,2.039v.108c.326.048.507.168.507.434,0,.374-.35.579-1.218.579Z" transform="translate(-152.055 -193.933)" fill="#fff"/>
        <path id="Path_3526" data-name="Path 3526" d="M195.167,202.69l1.544-8.177h1.567l1.556,8.177h-1.41l-.253-1.5h-1.459l-.241,1.5Zm1.073-8.5c.024-.567.242-1.025.845-1.025.349,0,.639.205.82.205a.162.162,0,0,0,.169-.182h.675c-.024.567-.241,1.025-.844,1.025-.35,0-.639-.205-.82-.205a.162.162,0,0,0-.169.181Zm.652,5.91h1.1l-.543-3.281h-.012Z" transform="translate(-154.834 -193.162)" fill="#fff"/>
        <path id="Path_3527" data-name="Path 3527" d="M203.52,201.35v-3.956a2.084,2.084,0,1,1,4.161,0v3.956a2.084,2.084,0,1,1-4.161,0Zm2.786.217v-4.39c0-.494-.217-.844-.712-.844s-.7.35-.7.844v4.39c0,.494.217.844.7.844S206.306,202.061,206.306,201.567Z" transform="translate(-158.013 -193.933)" fill="#fff"/>
        <path id="Path_3528" data-name="Path 3528" d="M134.167,217.009V220.8c0,1.254-.518,2.2-1.99,2.2h-2.122v-8.177h2.122C133.649,214.814,134.167,215.743,134.167,217.009Zm-2.159,4.861c.567,0,.784-.338.784-.833v-4.281a.717.717,0,0,0-.784-.821h-.579v5.934Z" transform="translate(-130.055 -201.402)" fill="#fff"/>
        <path id="Path_3529" data-name="Path 3529" d="M137.513,222.991l1.544-8.177h1.567l1.556,8.177h-1.41l-.254-1.5h-1.459l-.242,1.5Zm1.724-2.593h1.1l-.543-3.281h-.012Z" transform="translate(-132.893 -201.402)" fill="#fff"/>
        <path id="Path_3530" data-name="Path 3530" d="M148.4,214.814h2.039c1.388,0,1.894.688,1.894,1.833v1.725c0,1.145-.506,1.845-1.894,1.845h-.663v2.774H148.4Zm1.375,1.121v3.22h.507a.59.59,0,0,0,.675-.675V216.6c0-.446-.205-.663-.675-.663Z" transform="translate(-137.035 -201.402)" fill="#fff"/>
        <path id="Path_3531" data-name="Path 3531" d="M156.088,220.821v-3.956a2.084,2.084,0,1,1,4.161,0v3.956a2.084,2.084,0,1,1-4.161,0Zm2.786.217v-4.39c0-.495-.217-.844-.712-.844s-.7.349-.7.844v4.39c0,.494.217.844.7.844S158.874,221.533,158.874,221.038Z" transform="translate(-139.962 -201.343)" fill="#fff"/>
        <path id="Path_3532" data-name="Path 3532" d="M164.266,214.814h1.99c1.375,0,1.834.639,1.834,1.8v.832a1.191,1.191,0,0,1-.82,1.3,1.241,1.241,0,0,1,1.026,1.363v1.086c0,1.158-.519,1.8-1.894,1.8h-2.135Zm1.374,3.449h.483a.579.579,0,0,0,.65-.663v-1a.579.579,0,0,0-.663-.663h-.471Zm0,1.049v2.557h.6a.592.592,0,0,0,.676-.663v-1.23c0-.434-.205-.663-.688-.663Z" transform="translate(-143.074 -201.402)" fill="#fff"/>
        <path id="Path_3533" data-name="Path 3533" d="M173.448,219.24v3.751h-1.375v-8.177h2c1.387,0,1.893.688,1.893,1.833V217.7c0,.881-.313,1.4-1.1,1.58l1.314,3.715h-1.447Zm0-3.3v2.545h.458a.6.6,0,0,0,.675-.675V216.6c0-.446-.2-.663-.675-.663Z" transform="translate(-146.045 -201.402)" fill="#fff"/>
        <path id="Path_3534" data-name="Path 3534" d="M179.765,214.814h3.281v1.121h-1.906v2.34H182.5v1.109h-1.363v2.485h1.906v1.122h-3.281Z" transform="translate(-148.973 -201.402)" fill="#fff"/>
        <path id="Path_3535" data-name="Path 3535" d="M187.723,221.869h2.087v1.122h-3.522v-1.122l2.159-5.934h-1.941v-1.121h3.388v1.121Z" transform="translate(-151.455 -201.402)" fill="#fff"/>
        <path id="Path_3536" data-name="Path 3536" d="M193.025,222.991l1.544-8.177h1.567l1.556,8.177h-1.411l-.253-1.5h-1.459l-.242,1.5Zm1.725-2.593h1.1l-.543-3.281h-.012Z" transform="translate(-154.019 -201.402)" fill="#fff"/>
      </g>
    </g>
    <g id="Group_6908" data-name="Group 6908" transform="translate(413.584 3987.856)">
      <rect id="Rectangle_780" data-name="Rectangle 780" width="99.681" height="99.685" transform="translate(0 0)" fill="#c5192d"/>
      <path id="Path_3578" data-name="Path 3578" d="M640.375,215.606h3.2v-3.26h1.365v-2.638h-1.365v-14.2h-3.321l-5.839,14.764v2.075h5.958Zm-2.994-5.9,3.024-8.271h.03v8.271Z" transform="translate(-624.76 -187.154)" fill="#fff"/>
      <path id="Path_3579" data-name="Path 3579" d="M679.2,261.967l-17.878-10.323v33.395l17.878,5.394Z" transform="translate(-635 -208.517)" fill="#fff"/>
      <path id="Path_3580" data-name="Path 3580" d="M693.358,262.036v28.409l17.994-5.41V251.645Z" transform="translate(-647.191 -208.518)" fill="#fff"/>
      <path id="Path_3581" data-name="Path 3581" d="M742.465,248.979a2.115,2.115,0,1,0-4.23,0v2.28h4.23Z" transform="translate(-664.269 -206.698)" fill="#fff"/>
      <path id="Path_3582" data-name="Path 3582" d="M738.76,286.345h-.525l2.116,7.393,2.112-7.393h0V256.634h-4.229v29.711Z" transform="translate(-664.268 -210.416)" fill="#fff"/>
      <path id="Path_3583" data-name="Path 3583" d="M700.657,253.029l-1.916-1.514v34.38l-19.864,6.419h-2.019l-19.776-5.525V251.515l-1.918,1.514v35.1l21.6,5.98h2.2l19.931-6.328,1.76-.518Z" transform="translate(-632.655 -208.468)" fill="#fff"/>
      <g id="Group_6907" data-name="Group 6907" transform="translate(28.466 6.998)">
        <path id="Path_3584" data-name="Path 3584" d="M664.781,195.482h3.255V196.6h-1.891v2.321H667.5v1.1h-1.352v2.465h1.891V203.6h-3.255Z" transform="translate(-664.781 -194.142)" fill="#fff"/>
        <path id="Path_3585" data-name="Path 3585" d="M675.392,197.66v3.758c0,1.244-.515,2.178-1.974,2.178h-2.106v-8.113h2.106C674.877,195.482,675.392,196.4,675.392,197.66Zm-2.142,4.822c.563,0,.778-.335.778-.826v-4.247a.711.711,0,0,0-.778-.814h-.574v5.887Z" transform="translate(-667.266 -194.142)" fill="#fff"/>
        <path id="Path_3586" data-name="Path 3586" d="M683.206,195.482v6.139c0,1.256-.538,2.07-1.927,2.07a1.83,1.83,0,0,1-2.034-2.07v-6.139h1.364v6.27c0,.479.192.8.67.8s.67-.323.67-.8v-6.27Z" transform="translate(-670.285 -194.142)" fill="#fff"/>
        <path id="Path_3587" data-name="Path 3587" d="M686.985,201.442v-3.925a1.914,1.914,0,0,1,2.034-2.19c1.508,0,1.927.837,1.927,2.034v.957H689.7v-1.065c0-.5-.167-.79-.658-.79s-.694.348-.694.838v4.355c0,.491.2.837.694.837s.658-.312.658-.79v-1.5h1.244v1.4c0,1.161-.479,2.022-1.927,2.022A1.919,1.919,0,0,1,686.985,201.442Z" transform="translate(-673.231 -194.084)" fill="#fff"/>
        <path id="Path_3588" data-name="Path 3588" d="M694.287,203.6l1.532-8.113h1.555l1.544,8.113h-1.4l-.251-1.484h-1.448l-.239,1.484ZM696,201.023h1.089l-.539-3.255h-.012Z" transform="translate(-676.01 -194.142)" fill="#fff"/>
        <path id="Path_3589" data-name="Path 3589" d="M704.12,204.362c.383-.012.443-.1.443-.192s-.072-.131-.192-.131h-.059V203.6c-1.161-.144-1.639-1.018-1.639-2.154v-3.925a1.913,1.913,0,0,1,2.034-2.19c1.508,0,1.927.837,1.927,2.034v.957h-1.244v-1.065c0-.5-.168-.79-.659-.79s-.694.348-.694.838v4.355c0,.491.2.837.694.837s.659-.312.659-.79v-1.5h1.244v1.4c0,1.137-.455,1.974-1.807,2.022v.108c.324.048.5.168.5.431,0,.371-.347.575-1.209.575Z" transform="translate(-679.201 -194.084)" fill="#fff"/>
        <path id="Path_3590" data-name="Path 3590" d="M709.976,202.772l1.531-8.113h1.556l1.544,8.113h-1.4l-.251-1.484h-1.448l-.239,1.484Zm1.065-8.436c.024-.562.24-1.017.838-1.017.346,0,.634.2.813.2a.161.161,0,0,0,.168-.18h.67c-.024.563-.24,1.018-.838,1.018-.347,0-.634-.2-.813-.2a.161.161,0,0,0-.168.18Zm.646,5.864h1.089l-.538-3.255h-.012Z" transform="translate(-681.98 -193.319)" fill="#fff"/>
        <path id="Path_3591" data-name="Path 3591" d="M718.361,201.442v-3.925a2.068,2.068,0,1,1,4.128,0v3.925a2.068,2.068,0,1,1-4.128,0Zm2.764.216V197.3c0-.491-.215-.838-.706-.838s-.694.348-.694.838v4.355c0,.491.216.837.694.837S721.125,202.149,721.125,201.658Z" transform="translate(-685.171 -194.084)" fill="#fff"/>
        <path id="Path_3592" data-name="Path 3592" d="M668.861,216.972v3.757c0,1.244-.514,2.178-1.974,2.178h-2.106v-8.113h2.106C668.347,214.794,668.861,215.715,668.861,216.972Zm-2.142,4.822c.563,0,.778-.335.778-.826V216.72a.711.711,0,0,0-.778-.813h-.574v5.887Z" transform="translate(-664.781 -201.492)" fill="#fff"/>
        <path id="Path_3593" data-name="Path 3593" d="M672.728,214.794h3.254v1.113h-1.89v2.321h1.352v1.1h-1.352v2.465h1.89v1.113h-3.254Z" transform="translate(-667.805 -201.492)" fill="#fff"/>
        <path id="Path_3594" data-name="Path 3594" d="M682.935,223.4v-.55a1.867,1.867,0,0,1-1.555-2.094V216.83a2.068,2.068,0,1,1,4.128,0v3.925a1.949,1.949,0,0,1-1.005,1.915l1.005.191v1.017Zm1.208-2.357v-4.428c0-.491-.216-.837-.706-.837s-.694.347-.694.837v4.428c0,.478.216.837.694.837S684.143,221.52,684.143,221.042Z" transform="translate(-671.098 -201.433)" fill="#fff"/>
        <path id="Path_3595" data-name="Path 3595" d="M693.349,214.794v6.139c0,1.256-.539,2.07-1.927,2.07a1.83,1.83,0,0,1-2.034-2.07v-6.139h1.364v6.27c0,.479.191.8.669.8s.67-.323.67-.8v-6.27Z" transform="translate(-674.146 -201.492)" fill="#fff"/>
        <path id="Path_3596" data-name="Path 3596" d="M696.721,222.907l1.531-8.113h1.556l1.544,8.113h-1.4l-.251-1.484h-1.448l-.238,1.484Zm1.711-2.573h1.089l-.538-3.255h-.012Z" transform="translate(-676.936 -201.492)" fill="#fff"/>
        <path id="Path_3597" data-name="Path 3597" d="M705.34,214.794H706.7v7h1.627v1.113H705.34Z" transform="translate(-680.216 -201.492)" fill="#fff"/>
        <path id="Path_3598" data-name="Path 3598" d="M711.35,214.794h1.364v8.113H711.35Z" transform="translate(-682.503 -201.492)" fill="#fff"/>
        <path id="Path_3599" data-name="Path 3599" d="M719.016,216.972v3.757c0,1.244-.515,2.178-1.974,2.178h-2.105v-8.113h2.105C718.5,214.794,719.016,215.715,719.016,216.972Zm-2.142,4.822c.563,0,.778-.335.778-.826V216.72a.711.711,0,0,0-.778-.813H716.3v5.887Z" transform="translate(-683.868 -201.492)" fill="#fff"/>
        <path id="Path_3600" data-name="Path 3600" d="M722.431,222.907l1.531-8.113h1.556l1.544,8.113h-1.4l-.251-1.484h-1.448l-.238,1.484Zm1.711-2.573h1.089l-.538-3.255h-.012Z" transform="translate(-686.72 -201.492)" fill="#fff"/>
        <path id="Path_3601" data-name="Path 3601" d="M735.13,216.972v3.757c0,1.244-.515,2.178-1.975,2.178H731.05v-8.113h2.105C734.615,214.794,735.13,215.715,735.13,216.972Zm-2.142,4.822c.562,0,.778-.335.778-.826V216.72a.711.711,0,0,0-.778-.813h-.574v5.887Z" transform="translate(-690 -201.492)" fill="#fff"/>
        <path id="Path_3602" data-name="Path 3602" d="M739,214.794h3.254v1.113h-1.89v2.321h1.352v1.1h-1.352v2.465h1.89v1.113H739Z" transform="translate(-693.025 -201.492)" fill="#fff"/>
      </g>
    </g>
    <g id="Group_6911" data-name="Group 6911" transform="translate(524.167 3987.856)">
      <rect id="Rectangle_781" data-name="Rectangle 781" width="99.681" height="99.686" transform="translate(0 0)" fill="#ff3a21"/>
      <path id="Path_3603" data-name="Path 3603" d="M819.122,201.865a3.05,3.05,0,0,0-2.846,1.393h-.03v-5.01h5.811v-2.757h-8.893v11.325h3.082v-.447c0-1.186.534-1.837,1.482-1.837,1.038,0,1.454.712,1.454,1.81V211.2c0,1.068-.386,1.808-1.424,1.808-1.156,0-1.57-.771-1.57-1.956v-2.52H813.1v2.282c0,3.053,1.216,5.01,4.655,5.01,3.409,0,4.8-1.808,4.8-4.6v-4.921c0-3.172-1.629-4.447-3.438-4.447" transform="translate(-803.228 -187.148)" fill="#fff"/>
      <g id="Group_6909" data-name="Group 6909" transform="translate(33.442 37.719)">
        <path id="Path_3604" data-name="Path 3604" d="M890.313,242.914H877.923a.159.159,0,0,0-.157.158v4.117a.159.159,0,0,0,.157.159h4.933l-5.478,5.479a16.22,16.22,0,1,0-12.1,28.848v4.744h-4.887a.157.157,0,0,0-.16.157v4.412a.157.157,0,0,0,.16.158h4.887v4.668a.157.157,0,0,0,.157.157h4.41a.159.159,0,0,0,.16-.157v-4.668h4.886a.157.157,0,0,0,.157-.158v-4.412a.157.157,0,0,0-.157-.157h-4.886V281.6a16.212,16.212,0,0,0,10.629-25.342l5.4-5.4v4.608a.159.159,0,0,0,.16.157h4.116a.159.159,0,0,0,.16-.157v-12.39a.16.16,0,0,0-.16-.158m-22.938,34.617a11.944,11.944,0,1,1,11.944-11.943,11.957,11.957,0,0,1-11.944,11.943" transform="translate(-851.148 -242.914)" fill="#fff"/>
        <path id="Path_3605" data-name="Path 3605" d="M880.124,271.6H865.637a.151.151,0,0,0-.157.141v3.507a.149.149,0,0,0,.157.144h14.487a.15.15,0,0,0,.16-.144v-3.507a.151.151,0,0,0-.16-.141" transform="translate(-856.602 -253.832)" fill="#fff"/>
        <path id="Path_3606" data-name="Path 3606" d="M880.124,281.713H865.637a.153.153,0,0,0-.157.146v3.507a.15.15,0,0,0,.157.142h14.487a.151.151,0,0,0,.16-.142v-3.507a.153.153,0,0,0-.16-.146" transform="translate(-856.602 -257.679)" fill="#fff"/>
      </g>
      <g id="Group_6910" data-name="Group 6910" transform="translate(28.466 8.246)">
        <path id="Path_3607" data-name="Path 3607" d="M843.116,195.489h1.375v8.177h-1.375Z" transform="translate(-843.116 -195.392)" fill="#fff"/>
        <path id="Path_3608" data-name="Path 3608" d="M848.89,199.24h1.954v4.366h-.989v-.892a1.238,1.238,0,0,1-1.314.989c-1.182,0-1.726-.94-1.726-2.207V197.54a1.938,1.938,0,0,1,2.063-2.207c1.52,0,1.966.844,1.966,2.05v.724h-1.254v-.832c0-.507-.193-.8-.687-.8s-.712.349-.712.844v4.391c0,.494.205.844.676.844.447,0,.675-.253.675-.784v-1.447h-.651Z" transform="translate(-844.524 -195.333)" fill="#fff"/>
        <path id="Path_3609" data-name="Path 3609" d="M858.773,195.489v6.187c0,1.266-.542,2.086-1.942,2.086a1.845,1.845,0,0,1-2.051-2.086v-6.187h1.375v6.32c0,.483.193.808.676.808s.675-.326.675-.808v-6.32Z" transform="translate(-847.555 -195.392)" fill="#fff"/>
        <path id="Path_3610" data-name="Path 3610" d="M862.336,203.666l1.544-8.177h1.567L867,203.666h-1.411l-.253-1.5H863.88l-.242,1.5Zm1.725-2.593h1.1l-.543-3.28H864.6Z" transform="translate(-850.43 -195.392)" fill="#fff"/>
        <path id="Path_3611" data-name="Path 3611" d="M870.98,195.489h1.375v7.055H874v1.121H870.98Z" transform="translate(-853.72 -195.392)" fill="#fff"/>
        <path id="Path_3612" data-name="Path 3612" d="M881.168,197.684v3.787c0,1.254-.518,2.195-1.99,2.195h-2.122v-8.177h2.122C880.65,195.489,881.168,196.418,881.168,197.684Zm-2.159,4.861c.567,0,.784-.338.784-.833v-4.281a.717.717,0,0,0-.784-.821h-.579v5.934Z" transform="translate(-856.032 -195.392)" fill="#fff"/>
        <path id="Path_3613" data-name="Path 3613" d="M884.807,203.666l1.544-8.177h1.567l1.556,8.177h-1.411l-.253-1.5h-1.459l-.241,1.5Zm1.724-2.593h1.1l-.542-3.28h-.012Z" transform="translate(-858.982 -195.392)" fill="#fff"/>
        <path id="Path_3614" data-name="Path 3614" d="M897.564,197.684v3.787c0,1.254-.518,2.195-1.99,2.195h-2.123v-8.177h2.123C897.046,195.489,897.564,196.418,897.564,197.684Zm-2.159,4.861c.567,0,.784-.338.784-.833v-4.281a.717.717,0,0,0-.784-.821h-.578v5.934Z" transform="translate(-862.272 -195.392)" fill="#fff"/>
        <path id="Path_3615" data-name="Path 3615" d="M901.552,195.489h3.28v1.121h-1.906v2.34h1.363v1.109h-1.363v2.485h1.906v1.121h-3.28Z" transform="translate(-865.354 -195.392)" fill="#fff"/>
        <path id="Path_3616" data-name="Path 3616" d="M847.229,217.156v3.787c0,1.254-.518,2.195-1.99,2.195h-2.123v-8.177h2.123C846.711,214.961,847.229,215.89,847.229,217.156Zm-2.159,4.861c.567,0,.784-.338.784-.833V216.9a.716.716,0,0,0-.784-.82h-.579v5.934Z" transform="translate(-843.116 -202.803)" fill="#fff"/>
        <path id="Path_3617" data-name="Path 3617" d="M851.217,214.961H854.5v1.122h-1.906v2.34h1.363v1.109h-1.363v2.485H854.5v1.121h-3.281Z" transform="translate(-846.199 -202.803)" fill="#fff"/>
        <path id="Path_3618" data-name="Path 3618" d="M862.21,218.713h1.954v4.366h-.989v-.893a1.239,1.239,0,0,1-1.315.989c-1.181,0-1.724-.941-1.724-2.207v-3.956a1.937,1.937,0,0,1,2.063-2.207c1.519,0,1.966.844,1.966,2.05v.724h-1.255v-.833c0-.506-.193-.8-.687-.8s-.712.35-.712.844v4.39c0,.494.205.844.676.844.446,0,.675-.253.675-.784V219.8h-.651Z" transform="translate(-849.593 -202.744)" fill="#fff"/>
        <path id="Path_3619" data-name="Path 3619" d="M868.1,213.976h3.28V215.1h-1.906v2.34h1.364v1.109h-1.364v2.485h1.906v1.121H868.1Zm.567-.3v-.663l.868-.639h.6l.868.639v.663l-1.158-.35Z" transform="translate(-852.624 -201.817)" fill="#fff"/>
        <path id="Path_3620" data-name="Path 3620" d="M875.935,218v5.138h-1.158v-8.177h1.351l1.484,4.692v-4.692h1.146v8.177h-1.206Z" transform="translate(-855.165 -202.803)" fill="#fff"/>
        <path id="Path_3621" data-name="Path 3621" d="M882.664,214.961h3.281v1.122h-1.906v2.34H885.4v1.109h-1.363v2.485h1.906v1.121h-3.281Z" transform="translate(-858.167 -202.803)" fill="#fff"/>
        <path id="Path_3622" data-name="Path 3622" d="M890.717,219.387v3.751h-1.375v-8.177h2c1.387,0,1.893.688,1.893,1.834v1.049c0,.88-.313,1.4-1.1,1.58l1.314,3.715h-1.447Zm0-3.3v2.545h.459a.6.6,0,0,0,.675-.675v-1.206c0-.446-.206-.663-.675-.663Z" transform="translate(-860.708 -202.803)" fill="#fff"/>
        <path id="Path_3623" data-name="Path 3623" d="M897.034,220.969v-3.956a2.084,2.084,0,1,1,4.161,0v3.956a2.084,2.084,0,1,1-4.161,0Zm2.786.217V216.8c0-.494-.217-.844-.711-.844s-.7.35-.7.844v4.39c0,.494.217.844.7.844S899.82,221.68,899.82,221.186Z" transform="translate(-863.635 -202.744)" fill="#fff"/>
      </g>
    </g>
    <g id="Group_6913" data-name="Group 6913" transform="translate(635.903 3987.856)">
      <rect id="Rectangle_782" data-name="Rectangle 782" width="99.681" height="99.684" transform="translate(0 0)" fill="#a21942"/>
      <path id="Path_3624" data-name="Path 3624" d="M287.258,388.13v-2.194c0-1.926-.681-3.32-2.253-4.032a3.538,3.538,0,0,0,1.956-3.5v-.831c0-3.142-1.63-4.832-4.742-4.832-3.083,0-4.685,1.69-4.685,4.832v.831a3.568,3.568,0,0,0,1.9,3.5c-1.571.712-2.224,2.106-2.224,4.032v2.194c0,3.053,1.454,5.188,5.011,5.188,3.586,0,5.039-2.134,5.039-5.188m-6.552-10.76c0-1.217.416-1.928,1.513-1.928,1.125,0,1.541.711,1.541,1.928v1.362c0,1.215-.416,1.928-1.541,1.928-1.1,0-1.513-.713-1.513-1.928Zm3.172,11.115c0,1.216-.444,2.076-1.659,2.076-1.187,0-1.631-.86-1.631-2.076v-3.261c0-1.214.444-2.075,1.631-2.075,1.215,0,1.659.86,1.659,2.075Z" transform="translate(-267.89 -364.595)" fill="#fff"/>
      <path id="Path_3625" data-name="Path 3625" d="M366.58,438.577l-10.132,9.638a1.679,1.679,0,0,0-.578,1.448v27.013a.578.578,0,0,0,.578.576h10.466a.577.577,0,0,0,.577-.576V438.819c0-.318-.249-.9-.911-.243" transform="translate(-297.825 -389.534)" fill="#fff"/>
      <path id="Path_3626" data-name="Path 3626" d="M319.459,458.847l-10.133,9.637a1.679,1.679,0,0,0-.578,1.446v14.458a.578.578,0,0,0,.578.575h10.466a.577.577,0,0,0,.577-.575v-25.3c0-.32-.252-.9-.911-.242" transform="translate(-279.893 -397.247)" fill="#fff"/>
      <path id="Path_3627" data-name="Path 3627" d="M351.155,419.706a.286.286,0,0,0-.086-.219.306.306,0,0,0-.188-.082l-.055,0-.083.005-7.758,1.75-.141.014a.312.312,0,0,0-.151.079.3.3,0,0,0,0,.418l.087.088,1.772,1.771-17.58,17.58-8.12-8.12a.23.23,0,0,0-.33,0l-2.2,2.2,0,0L303.3,448.212a.236.236,0,0,0,0,.331l2.206,2.205a.231.231,0,0,0,.328,0L318.69,437.9l5.891,5.892a.128.128,0,0,0,.019.028l2.2,2.2a.23.23,0,0,0,.33,0l19.952-19.952,1.861,1.86a.291.291,0,0,0,.414,0,.287.287,0,0,0,.085-.192v-.025l1.7-7.92Z" transform="translate(-277.794 -382.352)" fill="#fff"/>
      <path id="Path_3628" data-name="Path 3628" d="M343.151,461.552l-4.9,4.942a.234.234,0,0,1-.315-.012l-4.441-4.528c-.813-.81-.989-.153-.989.165V485.4a.575.575,0,0,0,.574.576h10.469a.578.578,0,0,0,.576-.576V461.734c0-.318-.251-.9-.971-.183" transform="translate(-288.933 -398.261)" fill="#fff"/>
      <g id="Group_6912" data-name="Group 6912" transform="translate(27.817 8.276)">
        <path id="Path_3629" data-name="Path 3629" d="M307.072,373.059h2.3v.787h-1.338v1.643h.957v.779h-.957v1.745h1.338v.787h-2.3Z" transform="translate(-307.072 -372.991)" fill="#fff"/>
        <path id="Path_3630" data-name="Path 3630" d="M314.382,375.074h-.025L313.7,378.8h-.449l-.72-3.727h-.017V378.8h-.8v-5.742h1.126l.627,3.235h.008l.559-3.235h1.219V378.8h-.88Z" transform="translate(-308.842 -372.991)" fill="#fff"/>
        <path id="Path_3631" data-name="Path 3631" d="M318.426,373.059h1.431c.974,0,1.33.483,1.33,1.287v1.211c0,.8-.355,1.3-1.33,1.3h-.466V378.8h-.965Zm.965.787v2.261h.356a.414.414,0,0,0,.474-.474v-1.321c0-.313-.144-.466-.474-.466Z" transform="translate(-311.393 -372.991)" fill="#fff"/>
        <path id="Path_3632" data-name="Path 3632" d="M324.753,376.167V378.8h-.966v-5.742h1.406c.974,0,1.329.483,1.329,1.287v.737c0,.618-.22.982-.771,1.109l.923,2.608h-1.016Zm0-2.32v1.787h.321a.418.418,0,0,0,.474-.474v-.847c0-.313-.144-.466-.474-.466Z" transform="translate(-313.433 -372.991)" fill="#fff"/>
        <path id="Path_3633" data-name="Path 3633" d="M329.149,373.059h2.3v.787h-1.338v1.643h.957v.779h-.957v1.745h1.338v.787h-2.3Z" transform="translate(-315.474 -372.991)" fill="#fff"/>
        <path id="Path_3634" data-name="Path 3634" d="M335.12,375.693h1.371v3.066H335.8v-.627a.869.869,0,0,1-.923.694c-.83,0-1.211-.66-1.211-1.549V374.5a1.361,1.361,0,0,1,1.448-1.55c1.067,0,1.38.593,1.38,1.44v.509h-.88v-.585c0-.356-.136-.559-.483-.559s-.5.246-.5.593v3.083c0,.347.144.593.474.593.313,0,.474-.178.474-.551v-1.017h-.457Z" transform="translate(-317.191 -372.949)" fill="#fff"/>
        <path id="Path_3635" data-name="Path 3635" d="M339.217,377.277V374.5a1.464,1.464,0,1,1,2.922,0v2.778a1.463,1.463,0,1,1-2.922,0Zm1.956.152v-3.083c0-.347-.152-.593-.5-.593s-.491.246-.491.593v3.083c0,.347.152.593.491.593S341.173,377.776,341.173,377.43Z" transform="translate(-319.305 -372.949)" fill="#fff"/>
        <path id="Path_3636" data-name="Path 3636" d="M344.839,377.522v-.771h.9v.787c0,.322.144.509.474.509.3,0,.44-.2.44-.509v-.22a1.039,1.039,0,0,0-.432-.813l-.567-.568a1.936,1.936,0,0,1-.8-1.532v-.2a1.2,1.2,0,0,1,1.355-1.262c.966,0,1.347.474,1.347,1.3v.466h-.881v-.5c0-.33-.152-.491-.457-.491a.424.424,0,0,0-.458.474v.118c0,.322.178.508.458.779l.618.609a1.931,1.931,0,0,1,.779,1.49v.28a1.243,1.243,0,0,1-1.406,1.346A1.2,1.2,0,0,1,344.839,377.522Z" transform="translate(-321.445 -372.949)" fill="#fff"/>
        <path id="Path_3637" data-name="Path 3637" d="M354.648,374.6v2.659c0,.881-.364,1.541-1.4,1.541h-1.49v-5.742h1.49C354.284,373.059,354.648,373.711,354.648,374.6Zm-1.516,3.413c.4,0,.55-.237.55-.585v-3.006a.5.5,0,0,0-.55-.576h-.407v4.167Z" transform="translate(-324.079 -372.991)" fill="#fff"/>
        <path id="Path_3638" data-name="Path 3638" d="M357.409,373.059h.966V378.8h-.966Z" transform="translate(-326.228 -372.991)" fill="#fff"/>
        <path id="Path_3639" data-name="Path 3639" d="M361.423,375.693H362.8v3.066H362.1v-.627a.869.869,0,0,1-.923.694c-.83,0-1.211-.66-1.211-1.549V374.5a1.361,1.361,0,0,1,1.448-1.55c1.067,0,1.38.593,1.38,1.44v.509h-.881v-.585c0-.356-.135-.559-.483-.559s-.5.246-.5.593v3.083c0,.347.144.593.475.593.313,0,.474-.178.474-.551v-1.017h-.458Z" transform="translate(-327.202 -372.949)" fill="#fff"/>
        <path id="Path_3640" data-name="Path 3640" d="M366.333,375.193V378.8h-.813v-5.742h.949l1.041,3.294v-3.294h.8V378.8h-.847Z" transform="translate(-329.315 -372.991)" fill="#fff"/>
        <path id="Path_3641" data-name="Path 3641" d="M371.02,377.277V374.5a1.463,1.463,0,1,1,2.921,0v2.778a1.463,1.463,0,1,1-2.921,0Zm1.956.152v-3.083c0-.347-.152-.593-.5-.593s-.491.246-.491.593v3.083c0,.347.152.593.491.593S372.976,377.776,372.976,377.43Z" transform="translate(-331.408 -372.949)" fill="#fff"/>
        <path id="Path_3642" data-name="Path 3642" d="M376.641,377.522v-.771h.9v.787c0,.322.144.509.474.509.305,0,.44-.2.44-.509v-.22a1.038,1.038,0,0,0-.432-.813l-.567-.568a1.935,1.935,0,0,1-.8-1.532v-.2A1.2,1.2,0,0,1,378,372.949c.965,0,1.347.474,1.347,1.3v.466h-.881v-.5c0-.33-.152-.491-.458-.491a.424.424,0,0,0-.457.474v.118c0,.322.178.508.457.779l.618.609a1.929,1.929,0,0,1,.779,1.49v.28A1.243,1.243,0,0,1,378,378.826,1.2,1.2,0,0,1,376.641,377.522Z" transform="translate(-333.547 -372.949)" fill="#fff"/>
        <path id="Path_3643" data-name="Path 3643" d="M383.562,373.059h2.3v.787h-1.338v1.643h.957v.779h-.957v1.745h1.338v.787h-2.3Z" transform="translate(-336.181 -372.991)" fill="#fff"/>
        <path id="Path_3644" data-name="Path 3644" d="M307.072,390.956v-2.778a1.355,1.355,0,0,1,1.44-1.55c1.067,0,1.364.593,1.364,1.44v.677h-.881v-.753c0-.356-.119-.559-.466-.559s-.491.246-.491.593v3.083c0,.347.144.593.491.593s.466-.221.466-.559v-1.059h.881v.991c0,.821-.339,1.432-1.364,1.432A1.358,1.358,0,0,1,307.072,390.956Z" transform="translate(-307.072 -378.155)" fill="#fff"/>
        <path id="Path_3645" data-name="Path 3645" d="M313.51,389.846v2.634h-.966v-5.742h1.405c.974,0,1.33.483,1.33,1.287v.737c0,.618-.22.982-.771,1.109l.923,2.608h-1.017Zm0-2.32v1.787h.321a.418.418,0,0,0,.475-.475v-.847c0-.313-.144-.466-.475-.466Z" transform="translate(-309.154 -378.196)" fill="#fff"/>
        <path id="Path_3646" data-name="Path 3646" d="M317.9,386.738h2.3v.787h-1.338v1.643h.957v.779h-.957v1.745h1.338v.787h-2.3Z" transform="translate(-311.195 -378.196)" fill="#fff"/>
        <path id="Path_3647" data-name="Path 3647" d="M322.406,391.2v-.77h.9v.788c0,.322.144.508.474.508.3,0,.44-.2.44-.508V391a1.038,1.038,0,0,0-.432-.813l-.567-.567a1.936,1.936,0,0,1-.8-1.533v-.195a1.2,1.2,0,0,1,1.355-1.262c.966,0,1.347.474,1.347,1.3v.466h-.881v-.5c0-.33-.152-.491-.457-.491a.424.424,0,0,0-.457.475V388c0,.322.178.509.457.779l.618.609a1.929,1.929,0,0,1,.779,1.491v.279a1.244,1.244,0,0,1-1.406,1.347A1.2,1.2,0,0,1,322.406,391.2Z" transform="translate(-312.907 -378.155)" fill="#fff"/>
        <path id="Path_3648" data-name="Path 3648" d="M327.8,390.956v-2.778a1.354,1.354,0,0,1,1.44-1.55c1.067,0,1.363.593,1.363,1.44v.677h-.881v-.753c0-.356-.118-.559-.466-.559s-.491.246-.491.593v3.083c0,.347.144.593.491.593s.466-.221.466-.559v-1.059h.881v.991c0,.821-.339,1.432-1.363,1.432A1.358,1.358,0,0,1,327.8,390.956Z" transform="translate(-314.959 -378.155)" fill="#fff"/>
        <path id="Path_3649" data-name="Path 3649" d="M333.267,386.738h.965v5.742h-.965Z" transform="translate(-317.041 -378.196)" fill="#fff"/>
        <path id="Path_3650" data-name="Path 3650" d="M338.483,388.754h-.025l-.652,3.726h-.448l-.72-3.726h-.017v3.726h-.8v-5.742h1.127l.626,3.235h.009l.559-3.235h1.22v5.742h-.881Z" transform="translate(-318.014 -378.196)" fill="#fff"/>
        <path id="Path_3651" data-name="Path 3651" d="M342.527,386.738h2.3v.787h-1.338v1.643h.957v.779h-.957v1.745h1.338v.787h-2.3Z" transform="translate(-320.565 -378.196)" fill="#fff"/>
        <path id="Path_3652" data-name="Path 3652" d="M347.991,388.872v3.608h-.813v-5.742h.948l1.042,3.294v-3.294h.8v5.742h-.847Z" transform="translate(-322.335 -378.196)" fill="#fff"/>
        <path id="Path_3653" data-name="Path 3653" d="M352.5,386.738h2.566v.787h-.8v4.954H353.3v-4.954h-.8Z" transform="translate(-324.36 -378.196)" fill="#fff"/>
        <path id="Path_3654" data-name="Path 3654" d="M357.259,390.956v-2.778a1.463,1.463,0,1,1,2.922,0v2.778a1.464,1.464,0,1,1-2.922,0Zm1.956.152v-3.083c0-.347-.152-.593-.5-.593s-.491.246-.491.593v3.083c0,.347.152.593.491.593S359.215,391.455,359.215,391.108Z" transform="translate(-326.171 -378.155)" fill="#fff"/>
        <path id="Path_3655" data-name="Path 3655" d="M364.494,386.738h2.3v.787H365.46v1.643h.957v.779h-.957v1.745H366.8v.787h-2.3Z" transform="translate(-328.925 -378.196)" fill="#fff"/>
        <path id="Path_3656" data-name="Path 3656" d="M369.009,390.956v-2.778a1.354,1.354,0,0,1,1.44-1.55c1.067,0,1.363.593,1.363,1.44v.677h-.881v-.753c0-.356-.118-.559-.466-.559s-.491.246-.491.593v3.083c0,.347.144.593.491.593s.466-.221.466-.559v-1.059h.881v.991c0,.821-.339,1.432-1.363,1.432A1.358,1.358,0,0,1,369.009,390.956Z" transform="translate(-330.643 -378.155)" fill="#fff"/>
        <path id="Path_3657" data-name="Path 3657" d="M374.479,390.956v-2.778a1.463,1.463,0,1,1,2.922,0v2.778a1.463,1.463,0,1,1-2.922,0Zm1.957.152v-3.083c0-.347-.152-.593-.5-.593s-.491.246-.491.593v3.083c0,.347.152.593.491.593S376.436,391.455,376.436,391.108Z" transform="translate(-332.724 -378.155)" fill="#fff"/>
        <path id="Path_3658" data-name="Path 3658" d="M381,388.872v3.608h-.813v-5.742h.948l1.041,3.294v-3.294h.8v5.742h-.847Z" transform="translate(-334.895 -378.196)" fill="#fff"/>
        <path id="Path_3659" data-name="Path 3659" d="M385.683,390.306v-2.778a1.463,1.463,0,1,1,2.921,0v2.778a1.463,1.463,0,1,1-2.921,0Zm.635-4.472v-.466l.61-.449h.424l.609.449v.466l-.813-.246Zm1.321,4.624v-3.083c0-.347-.152-.593-.5-.593s-.491.246-.491.593v3.083c0,.347.152.593.491.593S387.639,390.8,387.639,390.458Z" transform="translate(-336.988 -377.504)" fill="#fff"/>
        <path id="Path_3660" data-name="Path 3660" d="M394.046,388.754h-.025l-.652,3.726h-.449l-.72-3.726h-.017v3.726h-.8v-5.742h1.126l.627,3.235h.008l.559-3.235h1.22v5.742h-.881Z" transform="translate(-339.159 -378.196)" fill="#fff"/>
        <path id="Path_3661" data-name="Path 3661" d="M398.089,386.738h.965v5.742h-.965Z" transform="translate(-341.709 -378.196)" fill="#fff"/>
        <path id="Path_3662" data-name="Path 3662" d="M400.646,390.956v-2.778a1.355,1.355,0,0,1,1.44-1.55c1.067,0,1.363.593,1.363,1.44v.677h-.881v-.753c0-.356-.118-.559-.466-.559s-.491.246-.491.593v3.083c0,.347.144.593.491.593s.466-.221.466-.559v-1.059h.881v.991c0,.821-.339,1.432-1.363,1.432A1.358,1.358,0,0,1,400.646,390.956Z" transform="translate(-342.683 -378.155)" fill="#fff"/>
        <path id="Path_3663" data-name="Path 3663" d="M406.118,390.956v-2.778a1.463,1.463,0,1,1,2.922,0v2.778a1.464,1.464,0,1,1-2.922,0Zm1.956.152v-3.083c0-.347-.152-.593-.5-.593s-.491.246-.491.593v3.083c0,.347.152.593.491.593S408.074,391.455,408.074,391.108Z" transform="translate(-344.765 -378.155)" fill="#fff"/>
      </g>
    </g>
    <g id="Group_6918" data-name="Group 6918" transform="translate(857.07 3987.856)">
      <rect id="Rectangle_783" data-name="Rectangle 783" width="99.681" height="99.684" transform="translate(0 0)" fill="#dd1367"/>
      <path id="Path_3664" data-name="Path 3664" d="M632.858,377.775v15.4h3.383V373.057h-2.7l-3.115,3.65v3.532h.028l2.374-2.464Z" transform="translate(-623.241 -364.714)" fill="#fff"/>
      <path id="Path_3665" data-name="Path 3665" d="M653.6,387.838V378.1c0-3.146-1.572-5.429-5.015-5.429-3.411,0-4.986,2.284-4.986,5.429v9.735c0,3.115,1.575,5.43,4.986,5.43,3.443,0,5.015-2.315,5.015-5.43m-6.617.534v-10.8c0-1.217.444-2.078,1.6-2.078,1.187,0,1.631.861,1.631,2.078v10.8c0,1.217-.445,2.076-1.631,2.076-1.158,0-1.6-.859-1.6-2.076" transform="translate(-628.253 -364.568)" fill="#fff"/>
      <g id="Group_6914" data-name="Group 6914" transform="translate(31.816 6.982)">
        <path id="Path_3666" data-name="Path 3666" d="M671.565,377.467v3.751H670.19v-8.177h2c1.387,0,1.893.687,1.893,1.833v1.049c0,.88-.313,1.4-1.1,1.58l1.315,3.715h-1.447Zm0-3.3v2.545h.458a.6.6,0,0,0,.675-.675v-1.206c0-.446-.2-.663-.675-.663Z" transform="translate(-670.19 -371.69)" fill="#fff"/>
        <path id="Path_3667" data-name="Path 3667" d="M677.882,373.041h3.281v1.121h-1.906v2.34h1.363v1.109h-1.363V380.1h1.906v1.121h-3.281Z" transform="translate(-673.117 -371.69)" fill="#fff"/>
        <path id="Path_3668" data-name="Path 3668" d="M688.673,375.236v3.787c0,1.254-.519,2.195-1.99,2.195h-2.122v-8.177h2.122C688.155,373.041,688.673,373.97,688.673,375.236Zm-2.159,4.861c.567,0,.784-.338.784-.833v-4.282a.716.716,0,0,0-.784-.82h-.579V380.1Z" transform="translate(-675.659 -371.69)" fill="#fff"/>
        <path id="Path_3669" data-name="Path 3669" d="M696.653,373.041v6.187c0,1.266-.543,2.086-1.941,2.086a1.845,1.845,0,0,1-2.051-2.086v-6.187h1.375v6.32c0,.482.193.808.676.808s.675-.326.675-.808v-6.32Z" transform="translate(-678.742 -371.69)" fill="#fff"/>
        <path id="Path_3670" data-name="Path 3670" d="M702.026,381.99c.386-.012.447-.1.447-.193s-.073-.133-.193-.133h-.061v-.447c-1.169-.144-1.653-1.025-1.653-2.171v-3.956a1.929,1.929,0,0,1,2.051-2.207c1.52,0,1.942.844,1.942,2.05v.965H703.3v-1.073c0-.507-.169-.8-.663-.8s-.7.35-.7.844v4.391c0,.494.205.844.7.844s.663-.314.663-.8v-1.507h1.255v1.41c0,1.146-.459,1.99-1.822,2.039v.108c.326.048.507.169.507.434,0,.374-.351.579-1.219.579Z" transform="translate(-681.75 -371.631)" fill="#fff"/>
        <path id="Path_3671" data-name="Path 3671" d="M707.869,380.388l1.544-8.177h1.568l1.555,8.177h-1.41l-.253-1.5h-1.459l-.241,1.5Zm1.073-8.5c.024-.567.241-1.025.844-1.025.349,0,.639.2.819.2a.162.162,0,0,0,.169-.181h.675c-.024.567-.241,1.026-.844,1.026-.349,0-.639-.205-.819-.205a.162.162,0,0,0-.17.181Zm.651,5.909h1.1l-.542-3.281h-.012Z" transform="translate(-684.529 -370.86)" fill="#fff"/>
        <path id="Path_3672" data-name="Path 3672" d="M716.222,379.048v-3.956a2.084,2.084,0,1,1,4.161,0v3.956a2.084,2.084,0,1,1-4.161,0Zm2.786.217v-4.391c0-.494-.217-.844-.712-.844s-.7.35-.7.844v4.391c0,.494.217.844.7.844S719.008,379.759,719.008,379.265Z" transform="translate(-687.708 -371.631)" fill="#fff"/>
        <path id="Path_3673" data-name="Path 3673" d="M730.752,375.236v3.787c0,1.254-.519,2.195-1.99,2.195h-2.122v-8.177h2.122C730.233,373.041,730.752,373.97,730.752,375.236Zm-2.159,4.861c.567,0,.784-.338.784-.833v-4.282a.717.717,0,0,0-.784-.82h-.579V380.1Z" transform="translate(-691.672 -371.69)" fill="#fff"/>
        <path id="Path_3674" data-name="Path 3674" d="M734.1,381.218l1.544-8.177h1.567l1.556,8.177h-1.411l-.253-1.5h-1.459l-.242,1.5Zm1.725-2.593h1.1l-.543-3.28h-.012Z" transform="translate(-694.511 -371.69)" fill="#fff"/>
        <path id="Path_3675" data-name="Path 3675" d="M742.432,379.4v-1.1h1.278v1.121c0,.458.205.724.676.724.434,0,.627-.289.627-.724v-.313a1.479,1.479,0,0,0-.615-1.158l-.808-.808a2.757,2.757,0,0,1-1.146-2.184v-.277a1.705,1.705,0,0,1,1.93-1.8c1.375,0,1.918.675,1.918,1.857v.663h-1.254v-.712c0-.47-.217-.7-.651-.7a.6.6,0,0,0-.652.675v.169c0,.458.254.723.652,1.109l.88.868a2.746,2.746,0,0,1,1.109,2.123v.4a1.771,1.771,0,0,1-2,1.918A1.7,1.7,0,0,1,742.432,379.4Z" transform="translate(-697.682 -371.631)" fill="#fff"/>
        <path id="Path_3676" data-name="Path 3676" d="M674.3,394.708v3.787c0,1.254-.519,2.195-1.99,2.195H670.19v-8.177h2.123C673.785,392.513,674.3,393.441,674.3,394.708Zm-2.159,4.861c.567,0,.784-.338.784-.833v-4.282a.716.716,0,0,0-.784-.82h-.579v5.934Z" transform="translate(-670.19 -379.1)" fill="#fff"/>
        <path id="Path_3677" data-name="Path 3677" d="M678.291,392.513h3.28v1.121h-1.905v2.34h1.363v1.109h-1.363v2.485h1.905v1.121h-3.28Z" transform="translate(-673.273 -379.1)" fill="#fff"/>
        <path id="Path_3678" data-name="Path 3678" d="M684.756,398.87v-1.1h1.278v1.122c0,.458.2.724.676.724.434,0,.627-.29.627-.724v-.314a1.48,1.48,0,0,0-.615-1.158l-.808-.808a2.756,2.756,0,0,1-1.146-2.183v-.277a1.706,1.706,0,0,1,1.93-1.8c1.375,0,1.917.675,1.917,1.857v.663h-1.254v-.712c0-.47-.217-.7-.651-.7a.6.6,0,0,0-.652.675v.169c0,.458.254.723.652,1.109l.88.868a2.747,2.747,0,0,1,1.109,2.123v.4a1.771,1.771,0,0,1-2,1.918A1.7,1.7,0,0,1,684.756,398.87Z" transform="translate(-675.733 -379.041)" fill="#fff"/>
        <path id="Path_3679" data-name="Path 3679" d="M692.486,392.513h1.375v8.177h-1.375Z" transform="translate(-678.675 -379.1)" fill="#fff"/>
        <path id="Path_3680" data-name="Path 3680" d="M698.261,396.264h1.954v4.366h-.989v-.893a1.238,1.238,0,0,1-1.314.989c-1.183,0-1.725-.94-1.725-2.207v-3.956a1.938,1.938,0,0,1,2.063-2.207c1.52,0,1.966.844,1.966,2.05v.724H698.96V394.3c0-.507-.193-.8-.687-.8s-.712.349-.712.844v4.391c0,.494.205.844.676.844.447,0,.675-.254.675-.784V397.35h-.651Z" transform="translate(-680.083 -379.041)" fill="#fff"/>
        <path id="Path_3681" data-name="Path 3681" d="M708.142,392.513V398.7c0,1.266-.542,2.086-1.942,2.086a1.845,1.845,0,0,1-2.051-2.086v-6.187h1.375v6.319c0,.483.193.808.676.808s.675-.326.675-.808v-6.319Z" transform="translate(-683.113 -379.1)" fill="#fff"/>
        <path id="Path_3682" data-name="Path 3682" d="M711.413,400.69l1.544-8.177h1.568l1.556,8.177h-1.411l-.253-1.5h-1.459l-.241,1.5Zm1.724-2.593h1.1l-.543-3.281h-.012Z" transform="translate(-685.878 -379.1)" fill="#fff"/>
        <path id="Path_3683" data-name="Path 3683" d="M720.058,392.513h1.375v7.055h1.641v1.121h-3.015Z" transform="translate(-689.168 -379.1)" fill="#fff"/>
        <path id="Path_3684" data-name="Path 3684" d="M730.245,394.708v3.787c0,1.254-.518,2.195-1.99,2.195h-2.123v-8.177h2.123C729.728,392.513,730.245,393.441,730.245,394.708Zm-2.159,4.861c.567,0,.784-.338.784-.833v-4.282a.717.717,0,0,0-.784-.82h-.578v5.934Z" transform="translate(-691.48 -379.1)" fill="#fff"/>
        <path id="Path_3685" data-name="Path 3685" d="M733.592,400.69l1.544-8.177H736.7l1.556,8.177h-1.411l-.254-1.5h-1.459l-.242,1.5Zm1.724-2.593h1.1l-.542-3.281h-.012Z" transform="translate(-694.318 -379.1)" fill="#fff"/>
        <path id="Path_3686" data-name="Path 3686" d="M746.349,394.708v3.787c0,1.254-.519,2.195-1.99,2.195h-2.123v-8.177h2.123C745.831,392.513,746.349,393.441,746.349,394.708Zm-2.159,4.861c.567,0,.784-.338.784-.833v-4.282a.716.716,0,0,0-.784-.82h-.579v5.934Z" transform="translate(-697.608 -379.1)" fill="#fff"/>
        <path id="Path_3687" data-name="Path 3687" d="M750.336,392.513h3.281v1.121h-1.905v2.34h1.363v1.109h-1.363v2.485h1.905v1.121h-3.281Z" transform="translate(-700.69 -379.1)" fill="#fff"/>
        <path id="Path_3688" data-name="Path 3688" d="M756.8,398.87v-1.1h1.278v1.122c0,.458.205.724.676.724.434,0,.627-.29.627-.724v-.314a1.48,1.48,0,0,0-.614-1.158l-.808-.808a2.756,2.756,0,0,1-1.146-2.183v-.277a1.706,1.706,0,0,1,1.93-1.8c1.375,0,1.918.675,1.918,1.857v.663h-1.254v-.712c0-.47-.218-.7-.651-.7a.6.6,0,0,0-.652.675v.169c0,.458.253.723.652,1.109l.88.868a2.747,2.747,0,0,1,1.109,2.123v.4a1.771,1.771,0,0,1-2,1.918A1.7,1.7,0,0,1,756.8,398.87Z" transform="translate(-703.151 -379.041)" fill="#fff"/>
      </g>
      <g id="Group_6917" data-name="Group 6917" transform="translate(23.001 34.954)">
        <g id="Group_6915" data-name="Group 6915" transform="translate(16.795 17.327)">
          <path id="Path_3689" data-name="Path 3689" d="M701.768,463.084h-18.5a.214.214,0,0,0-.2.224v5.559a.214.214,0,0,0,.2.226h18.5a.214.214,0,0,0,.2-.226v-5.559a.214.214,0,0,0-.2-.224" transform="translate(-683.071 -451.256)" fill="#fff"/>
          <path id="Path_3690" data-name="Path 3690" d="M701.768,443.989h-18.5a.214.214,0,0,0-.2.224v5.559a.214.214,0,0,0,.2.226h18.5a.214.214,0,0,0,.2-.226v-5.559a.214.214,0,0,0-.2-.224" transform="translate(-683.071 -443.989)" fill="#fff"/>
        </g>
        <g id="Group_6916" data-name="Group 6916">
          <path id="Path_3691" data-name="Path 3691" d="M701.765,424.941l-8.878-8.878a.153.153,0,0,0-.217,0l-8.878,8.878a.154.154,0,0,0,.108.262h17.757A.153.153,0,0,0,701.765,424.941Z" transform="translate(-666.533 -416.017)" fill="#fff"/>
          <path id="Path_3692" data-name="Path 3692" d="M726.13,461.825l8.878-8.879a.155.155,0,0,0,0-.217l-8.878-8.878a.154.154,0,0,0-.262.109v17.757A.154.154,0,0,0,726.13,461.825Z" transform="translate(-682.563 -426.592)" fill="#fff"/>
          <path id="Path_3693" data-name="Path 3693" d="M683.791,486.189l8.878,8.878a.153.153,0,0,0,.217,0l8.878-8.878a.153.153,0,0,0-.108-.262H683.9A.154.154,0,0,0,683.791,486.189Z" transform="translate(-666.533 -442.622)" fill="#fff"/>
          <path id="Path_3694" data-name="Path 3694" d="M664.882,443.85,656,452.729a.154.154,0,0,0,0,.217l8.878,8.879a.153.153,0,0,0,.261-.108V443.959A.153.153,0,0,0,664.882,443.85Z" transform="translate(-655.958 -426.592)" fill="#fff"/>
        </g>
      </g>
    </g>
    <g id="Group_6931" data-name="Group 6931" transform="translate(746.486 3987.856)">
      <rect id="Rectangle_789" data-name="Rectangle 789" width="99.681" height="99.684" transform="translate(0 0)" fill="#fd6925"/>
      <path id="Path_3800" data-name="Path 3800" d="M466.7,377.944c0-3.112-1.364-5.363-4.919-5.363-3.586,0-4.977,1.955-4.977,5.066v2.963c0,3.289,1.3,4.948,3.733,4.948a2.89,2.89,0,0,0,2.784-1.629h.029v4.324c0,1.215-.475,2.074-1.689,2.074S460,389.617,460,388.373V387.04h-3.082v1.067c0,2.962,1.068,5.036,4.8,5.036,3.554,0,4.978-2.281,4.978-5.423Zm-3.349,3.082c-.059,1.125-.533,1.836-1.6,1.836-1.154,0-1.6-.711-1.6-2.015v-3.5c0-1.274.473-2.014,1.63-2.014,1.126,0,1.57.769,1.57,2.014Z" transform="translate(-447.44 -364.533)" fill="#fff"/>
      <g id="Group_6930" data-name="Group 6930" transform="translate(28.42 6.991)">
        <path id="Path_3801" data-name="Path 3801" d="M487.566,373.056h1.375v8.177h-1.375Z" transform="translate(-487.566 -371.705)" fill="#fff"/>
        <path id="Path_3802" data-name="Path 3802" d="M492.482,376.095v5.138h-1.158v-8.177h1.35l1.484,4.691v-4.691H495.3v8.177H494.1Z" transform="translate(-488.996 -371.705)" fill="#fff"/>
        <path id="Path_3803" data-name="Path 3803" d="M499.268,379.063v-3.956a2.084,2.084,0,1,1,4.161,0v3.956a2.084,2.084,0,1,1-4.161,0Zm2.786.217V374.89c0-.494-.217-.844-.712-.844s-.7.35-.7.844v4.391c0,.494.217.844.7.844S502.054,379.775,502.054,379.28Z" transform="translate(-492.019 -371.646)" fill="#fff"/>
        <path id="Path_3804" data-name="Path 3804" d="M511.392,373.056l-1.556,8.177h-1.5l-1.556-8.177h1.4l.94,5.7h.012l.966-5.7Z" transform="translate(-494.879 -371.705)" fill="#fff"/>
        <path id="Path_3805" data-name="Path 3805" d="M513.873,381.233l1.544-8.177h1.567l1.555,8.177h-1.41l-.253-1.5h-1.459l-.242,1.5Zm1.724-2.593h1.1l-.542-3.281h-.012Z" transform="translate(-497.577 -371.705)" fill="#fff"/>
        <path id="Path_3806" data-name="Path 3806" d="M523.742,382.006c.386-.012.446-.1.446-.193s-.073-.132-.192-.132h-.061v-.447c-1.17-.144-1.653-1.025-1.653-2.171v-3.956a1.929,1.929,0,0,1,2.051-2.207c1.52,0,1.941.844,1.941,2.05v.965h-1.254v-1.073c0-.507-.169-.8-.663-.8s-.7.35-.7.844v4.391c0,.494.206.844.7.844s.663-.313.663-.8v-1.507h1.254v1.411c0,1.145-.458,1.99-1.822,2.038v.108c.325.048.507.169.507.434,0,.374-.349.579-1.218.579Z" transform="translate(-500.778 -371.646)" fill="#fff"/>
        <path id="Path_3807" data-name="Path 3807" d="M529.645,380.4l1.544-8.177h1.567l1.556,8.177H532.9l-.253-1.5h-1.459l-.242,1.5Zm1.073-8.5c.024-.567.241-1.025.844-1.025.35,0,.639.205.819.205a.162.162,0,0,0,.17-.181h.675c-.024.567-.241,1.025-.845,1.025-.349,0-.639-.205-.819-.205a.162.162,0,0,0-.169.181Zm.651,5.909h1.1l-.542-3.28h-.012Z" transform="translate(-503.58 -370.875)" fill="#fff"/>
        <path id="Path_3808" data-name="Path 3808" d="M538.055,379.063v-3.956a2.084,2.084,0,1,1,4.161,0v3.956a2.084,2.084,0,1,1-4.161,0Zm2.786.217V374.89c0-.494-.217-.844-.712-.844s-.7.35-.7.844v4.391c0,.494.217.844.7.844S540.841,379.775,540.841,379.28Z" transform="translate(-506.78 -371.646)" fill="#fff"/>
        <path id="Path_3809" data-name="Path 3809" d="M548.588,373.056h3.281v1.121h-1.906v2.34h1.362v1.109h-1.362v2.485h1.906v1.121h-3.281Z" transform="translate(-510.789 -371.705)" fill="#fff"/>
        <path id="Path_3810" data-name="Path 3810" d="M487.566,392.527h1.375V400.7h-1.375Z" transform="translate(-487.566 -379.115)" fill="#fff"/>
        <path id="Path_3811" data-name="Path 3811" d="M492.482,395.567V400.7h-1.158v-8.177h1.35l1.484,4.692v-4.692H495.3V400.7H494.1Z" transform="translate(-488.996 -379.115)" fill="#fff"/>
        <path id="Path_3812" data-name="Path 3812" d="M499.268,392.527h3.22v1.122h-1.845v2.34h1.375V397.1h-1.375V400.7h-1.375Z" transform="translate(-492.019 -379.115)" fill="#fff"/>
        <path id="Path_3813" data-name="Path 3813" d="M507.069,396.954V400.7h-1.376v-8.177h2c1.388,0,1.893.688,1.893,1.833v1.049c0,.88-.313,1.4-1.1,1.58l1.315,3.715H508.36Zm0-3.3v2.545h.458a.6.6,0,0,0,.675-.675v-1.206c0-.447-.206-.663-.675-.663Z" transform="translate(-494.464 -379.115)" fill="#fff"/>
        <path id="Path_3814" data-name="Path 3814" d="M513.094,400.7l1.544-8.177H516.2l1.556,8.177h-1.41l-.253-1.5h-1.459l-.242,1.5Zm1.724-2.593h1.1l-.542-3.281h-.012Z" transform="translate(-497.281 -379.115)" fill="#fff"/>
        <path id="Path_3815" data-name="Path 3815" d="M521.8,392.527h3.28v1.122h-1.905v2.34h1.363V397.1h-1.363v2.485h1.905V400.7H521.8Z" transform="translate(-500.593 -379.115)" fill="#fff"/>
        <path id="Path_3816" data-name="Path 3816" d="M528.32,398.884v-1.1H529.6v1.121c0,.458.206.724.676.724.433,0,.626-.289.626-.724v-.313a1.479,1.479,0,0,0-.614-1.158l-.808-.808a2.759,2.759,0,0,1-1.145-2.184v-.278a1.7,1.7,0,0,1,1.93-1.8c1.375,0,1.918.675,1.918,1.857v.663h-1.255v-.712c0-.47-.217-.7-.65-.7a.6.6,0,0,0-.652.675v.169c0,.458.254.723.652,1.109l.88.868a2.745,2.745,0,0,1,1.109,2.122v.4a1.77,1.77,0,0,1-2,1.918A1.7,1.7,0,0,1,528.32,398.884Z" transform="translate(-503.075 -379.056)" fill="#fff"/>
        <path id="Path_3817" data-name="Path 3817" d="M535.562,392.527h3.655v1.122h-1.133V400.7H536.7v-7.055h-1.134Z" transform="translate(-505.831 -379.115)" fill="#fff"/>
        <path id="Path_3818" data-name="Path 3818" d="M544.123,396.954V400.7h-1.375v-8.177h2c1.387,0,1.894.688,1.894,1.833v1.049c0,.88-.313,1.4-1.1,1.58l1.314,3.715h-1.447Zm0-3.3v2.545h.458a.6.6,0,0,0,.675-.675v-1.206c0-.447-.2-.663-.675-.663Z" transform="translate(-508.566 -379.115)" fill="#fff"/>
        <path id="Path_3819" data-name="Path 3819" d="M554.488,392.527v6.188c0,1.266-.542,2.086-1.941,2.086a1.846,1.846,0,0,1-2.051-2.086v-6.188h1.376v6.32c0,.482.192.808.675.808s.675-.326.675-.808v-6.32Z" transform="translate(-511.515 -379.115)" fill="#fff"/>
        <path id="Path_3820" data-name="Path 3820" d="M558.207,392.527h3.655v1.122h-1.134V400.7h-1.387v-7.055h-1.134Z" transform="translate(-514.449 -379.115)" fill="#fff"/>
        <path id="Path_3821" data-name="Path 3821" d="M569.385,392.527v6.188c0,1.266-.543,2.086-1.942,2.086a1.845,1.845,0,0,1-2.05-2.086v-6.188h1.374v6.32c0,.482.194.808.676.808s.675-.326.675-.808v-6.32Z" transform="translate(-517.184 -379.115)" fill="#fff"/>
        <path id="Path_3822" data-name="Path 3822" d="M574.731,396.954V400.7h-1.376v-8.177h2c1.388,0,1.894.688,1.894,1.833v1.049c0,.88-.314,1.4-1.1,1.58l1.315,3.715h-1.447Zm0-3.3v2.545h.458a.6.6,0,0,0,.675-.675v-1.206c0-.447-.206-.663-.675-.663Z" transform="translate(-520.214 -379.115)" fill="#fff"/>
        <path id="Path_3823" data-name="Path 3823" d="M580.756,400.7l1.544-8.177h1.568l1.556,8.177h-1.41l-.255-1.5H582.3l-.241,1.5Zm1.725-2.593h1.1l-.543-3.281h-.012Z" transform="translate(-523.031 -379.115)" fill="#fff"/>
      </g>
      <path id="Path_3824" data-name="Path 3824" d="M532.4,447.914l-11.85-6.839V427.394a.809.809,0,0,0-.4-.7L507.9,419.62a.811.811,0,0,0-.808,0l-12.253,7.073a.808.808,0,0,0-.4.7v13.681l-11.848,6.839a.808.808,0,0,0-.4.7v14.15a.809.809,0,0,0,.4.7l12.252,7.072a.809.809,0,0,0,.808,0l11.848-6.839,11.847,6.839a.808.808,0,0,0,.808,0l12.254-7.072a.809.809,0,0,0,.4-.7v-14.15A.807.807,0,0,0,532.4,447.914Zm-25.718,13.45-9.827-5.675,9.827-5.675Zm11.442-19.822-9.826,5.672V435.867Zm-11.442,5.672-9.827-5.672,9.827-5.675Zm2.425,1.4,10.635-6.139,10.637,6.139-10.637,6.142Zm9.826-8.473-9.826-5.675,9.826-5.673Zm-13.06-5.675-9.827,5.675V428.794Zm-11.444,33.969L483.8,462.3V450.014l10.636,6.142Zm1.617,0V457.089l9.827,5.675Zm35.141-6.139-10.638,6.139v-12.28l10.638-6.142Z" transform="translate(-457.097 -382.393)" fill="#fff"/>
    </g>
  </g>
</svg>
