<svg xmlns="http://www.w3.org/2000/svg" width="108.916" height="176.289" viewBox="0 0 108.916 176.289">
  <g id="Group_7171" data-name="Group 7171" transform="translate(0)">
    <g id="Path_3885" data-name="Path 3885" transform="translate(41.334)" fill="#f0f3ff">
      <path d="M 22.59106636047363 45.28713607788086 L 2.925756931304932 45.28713607788086 L -18.7996654510498 0.7500061392784119 L 0.8656440377235413 0.7500061392784119 L 22.59106636047363 45.28713607788086 Z" stroke="none"/>
      <path d="M -17.59934234619141 1.499996185302734 L 3.394373178482056 44.53712463378906 L 21.39074325561523 44.53712463378906 L 0.3970277309417725 1.499996185302734 L -17.59934234619141 1.499996185302734 M -20 -3.814697265625e-06 L 1.334270477294922 -3.814697265625e-06 L 23.79140090942383 46.03712463378906 L 2.457130432128906 46.03712463378906 L -20 -3.814697265625e-06 Z" stroke="none" fill="#0f2b92"/>
    </g>
    <g id="Subtraction_5" data-name="Subtraction 5" transform="translate(0 31.44)" fill="#f0f3ff">
      <path d="M 108.16650390625 144.0980224609375 L 0.7502467632293701 144.0980224609375 L 0.7502467632293701 0.7498813271522522 L 108.16650390625 0.7498813271522522 L 108.16650390625 144.0980224609375 Z M 35.18090057373047 7.11011791229248 L 35.18090057373047 7.86011791229248 L 35.18090057373047 17.9658260345459 L 35.18090057373047 18.7158260345459 L 35.93090057373047 18.7158260345459 L 72.985595703125 18.7158260345459 L 73.735595703125 18.7158260345459 L 73.735595703125 17.9658260345459 L 73.735595703125 7.86011791229248 L 73.735595703125 7.11011791229248 L 72.985595703125 7.11011791229248 L 35.93090057373047 7.11011791229248 L 35.18090057373047 7.11011791229248 Z" stroke="none"/>
      <path d="M 107.4165115356445 143.3480224609375 L 107.4165115356445 1.499879479408264 L 1.500254034996033 1.499879479408264 L 1.500254034996033 143.3480224609375 L 107.4165115356445 143.3480224609375 M 34.43091583251953 6.360119342803955 L 35.93091583251953 6.360119342803955 L 72.985595703125 6.360119342803955 L 74.485595703125 6.360119342803955 L 74.485595703125 7.860119342803955 L 74.485595703125 17.9658203125 L 74.485595703125 19.4658203125 L 72.985595703125 19.4658203125 L 35.93091583251953 19.4658203125 L 34.43091583251953 19.4658203125 L 34.43091583251953 17.9658203125 L 34.43091583251953 7.860119342803955 L 34.43091583251953 6.360119342803955 M 108.9165115356445 144.84912109375 L 108.9165115356445 144.8480224609375 L 0.0002540234418120235 144.8480224609375 L 0.0002540234418120235 -0.0001204882792080753 L 108.9165115356445 -0.0001204882792080753 L 108.9165115356445 144.8480224609375 L 108.9165115356445 144.84912109375 Z M 35.93091583251953 7.860119342803955 L 35.93091583251953 17.9658203125 L 72.985595703125 17.9658203125 L 72.985595703125 7.860119342803955 L 35.93091583251953 7.860119342803955 Z" stroke="none" fill="#0f2b92"/>
    </g>
    <g id="Path_3886" data-name="Path 3886" transform="translate(53.791)" fill="#f0f3ff">
      <path d="M 10.86564445495605 45.28713607788086 L -8.799666404724121 45.28713607788086 L 12.92575645446777 0.7500061392784119 L 32.59106826782227 0.7500061392784119 L 10.86564445495605 45.28713607788086 Z" stroke="none"/>
      <path d="M 13.39437294006348 1.499996185302734 L -7.599342346191406 44.53712463378906 L 10.39702796936035 44.53712463378906 L 31.39074325561523 1.499996185302734 L 13.39437294006348 1.499996185302734 M 12.45713043212891 -3.814697265625e-06 L 33.79140090942383 -3.814697265625e-06 L 11.33427047729492 46.03712463378906 L -10 46.03712463378906 L 12.45713043212891 -3.814697265625e-06 Z" stroke="none" fill="#0f2b92"/>
    </g>
    <line id="Line_70" data-name="Line 70" x2="56.143" transform="translate(26.387 147.656)" fill="none" stroke="#0f2b92" stroke-width="1.5"/>
    <line id="Line_71" data-name="Line 71" x2="56.143" transform="translate(26.387 160.007)" fill="none" stroke="#0f2b92" stroke-width="1.5"/>
    <g id="Group_7170" data-name="Group 7170" transform="translate(19.09 66.442)">
      <path id="Path_3887" data-name="Path 3887" d="M4981.682,4703.959s-2,4.367-6.61,4.637-5.416-3.314-5.416-3.314-2.633,3.037-5.527,1.056a3.806,3.806,0,0,1-1.394-4.9s-3.593.094-4.8-2.889a4.451,4.451,0,0,1,1.114-4.965,5.984,5.984,0,0,1-5.374-6.551c.256-6.049,5.374-6.5,5.374-6.5s-6.64-2.531-4.536-9.1a7.916,7.916,0,0,1,8.222-5.875s-3.847-8,2.859-12.876,13.844-.938,13.844-.938.441-7.682,7.3-8.315,7.912,3.867,7.912,3.867,3.854-4.723,7.679-2.185,3.3,6.026,3.3,6.026,6.478-2.543,9.231,2.279-.66,7.921-.66,7.921,3.334-.759,4.73,1.808-1.067,6.189-1.067,6.189,4.662-.276,5.435,3.733a7.2,7.2,0,0,1-2.036,6.49s3.617,1.427,3.58,5.027-3.58,5.726-3.58,5.726,2.885,3.23,1.04,6.444-5.981,4.686-5.981,4.686.7,5.85-5.971,7.028-10.6-4.507-10.6-4.507l5.083-19.377-3.692-1.311-4.459,1.866-14.474-2.754-6.108,5.547Z" transform="translate(-4953.666 -4643.366)" fill="#0f2b92" stroke="#0f2b92" stroke-width="1.5"/>
      <path id="Path_3889" data-name="Path 3889" d="M4983.374,4701.1s1.374,20.966,14.719,20.635,14.416-20.375,14.3-23.671" transform="translate(-4961.006 -4656.884)" fill="#f0f3ff" stroke="#0f2b92" stroke-width="1.5"/>
      <path id="Path_3888" data-name="Path 3888" d="M4981.848,4700.012s3.4.681,5.225-1.194a7.294,7.294,0,0,0,1.788-4.676s1.852,3.126,4.713,3.088,5.241-3.088,5.241-3.088.859,3.847,4.242,3.847a6.7,6.7,0,0,0,5.158-2.393,2.94,2.94,0,0,0,1.539,1.634c1.3.7,3.327-.616,3.327-.616" transform="translate(-4960.63 -4655.914)" fill="#f0f3ff" stroke="#0f2b92" stroke-width="1.5"/>
    </g>
  </g>
</svg>
