<svg xmlns="http://www.w3.org/2000/svg" width="46.317" height="32.632" viewBox="0 0 46.317 32.632">
  <path id="Path_6706" data-name="Path 6706" d="M53.349,39.1a5.819,5.819,0,0,0-4.095-4.121C45.642,34,31.158,34,31.158,34s-14.484,0-18.1.974A5.819,5.819,0,0,0,8.968,39.1C8,42.731,8,50.316,8,50.316s0,7.585.968,11.221a5.819,5.819,0,0,0,4.095,4.121c3.612.974,18.1.974,18.1.974s14.484,0,18.1-.974a5.819,5.819,0,0,0,4.095-4.121c.968-3.635.968-11.221.968-11.221S54.317,42.731,53.349,39.1ZM26.421,57.2V43.429l12.106,6.887Z" transform="translate(-8 -34)" fill="#fff"/>
</svg>
