<svg xmlns="http://www.w3.org/2000/svg" width="33.31" height="33.31" viewBox="0 0 33.31 33.31">
  <g id="Group_7237" data-name="Group 7237" transform="translate(-65.7 -76.5)">
    <circle id="Ellipse_1119" data-name="Ellipse 1119" cx="5.575" cy="5.575" r="5.575" transform="translate(76.78 87.65)" fill="#f8f8f8"/>
    <path id="Path_6705" data-name="Path 6705" d="M98.87,86.186a16.006,16.006,0,0,0-.767-3.972,7.5,7.5,0,0,0-1.882-2.927A8.391,8.391,0,0,0,93.3,77.406a11.8,11.8,0,0,0-3.972-.767c-1.882-.139-2.439-.139-6.969-.139s-5.087,0-6.969.139a16.006,16.006,0,0,0-3.972.767,7.5,7.5,0,0,0-2.927,1.882,8.392,8.392,0,0,0-1.882,2.927,11.8,11.8,0,0,0-.767,3.972c-.139,1.742-.139,2.369-.139,6.969,0,4.53,0,5.087.139,6.969a16.006,16.006,0,0,0,.767,3.972,6.791,6.791,0,0,0,1.882,2.927,8.392,8.392,0,0,0,2.927,1.882,11.8,11.8,0,0,0,3.972.767c1.742.139,2.369.139,6.969.139s5.087,0,6.969-.139A16.006,16.006,0,0,0,93.3,108.9a7.5,7.5,0,0,0,2.927-1.882A8.392,8.392,0,0,0,98.1,104.1a11.8,11.8,0,0,0,.767-3.972c.139-1.742.139-2.369.139-6.969C99.01,88.625,99.01,88.068,98.87,86.186ZM82.355,101.8a8.571,8.571,0,1,1,8.571-8.571A8.656,8.656,0,0,1,82.355,101.8Zm8.92-15.54a2.021,2.021,0,0,1,0-4.042A2.118,2.118,0,0,1,93.3,84.235,2.069,2.069,0,0,1,91.274,86.256Z" fill="#f8f8f8"/>
  </g>
</svg>
