<svg xmlns="http://www.w3.org/2000/svg" width="176.439" height="75.92" viewBox="0 0 176.439 75.92">
  <g id="Group_6828" data-name="Group 6828" transform="translate(-0.2 -0.2)">
    <rect id="Rectangle_585" data-name="Rectangle 585" width="158.5" height="39.245" transform="translate(16.639 35.375)" fill="#f26522" stroke="#2e3192" stroke-miterlimit="10" stroke-width="3"/>
    <g id="Group_6406" data-name="Group 6406" transform="translate(28.623 44.828)">
      <g id="Group_6405" data-name="Group 6405">
        <path id="Path_3022" data-name="Path 3022" d="M33.6,59.8h3.376l1.772,5.317c.338,1.1.675,2.279,1.013,3.46h.084c.338-1.182.675-2.363,1.013-3.46L42.631,59.8h3.207L41.7,71.109H37.82Z" transform="translate(-33.6 -53.892)" fill="#fff"/>
        <path id="Path_3023" data-name="Path 3023" d="M50.6,67.94c0-2.532,2.11-3.8,7.427-4.136-.084-1.013-.844-1.6-2.363-1.6a7.483,7.483,0,0,0-3.46,1.1l-1.266-2.279A10.528,10.528,0,0,1,56.255,59.5c3.207,0,5.064,1.688,5.064,5.148v6.5h-2.7l-.253-1.266H58.28A7.008,7.008,0,0,1,54.314,71.4C52.035,71.316,50.6,69.881,50.6,67.94Zm7.427-.253V65.83c-3.292.169-4.22.928-4.22,1.857,0,.76.591,1.1,1.519,1.1A4.75,4.75,0,0,0,58.027,67.687Z" transform="translate(-36.252 -53.845)" fill="#fff"/>
        <path id="Path_3024" data-name="Path 3024" d="M71.758,61.324H67.2V58.708h7.933V70.017H71.758Zm-.675-6.414a2.2,2.2,0,0,1,4.389,0,2.2,2.2,0,0,1-4.389,0Z" transform="translate(-38.842 -52.8)" fill="#fff"/>
        <path id="Path_3025" data-name="Path 3025" d="M99.484,59.753h2.7l.253,1.519h.084a5.6,5.6,0,0,1,3.882-1.772c2.532,0,3.714,1.772,3.714,4.558v7.005h-3.376V64.48c0-1.519-.422-2.194-1.688-2.194a3.052,3.052,0,0,0-2.279,1.182v7.511H99.4V59.753Z" transform="translate(-43.866 -53.845)" fill="#fff"/>
        <path id="Path_3026" data-name="Path 3026" d="M115.4,67.955c0-2.532,2.11-3.8,7.427-4.136-.084-1.013-.844-1.6-2.363-1.6a7.483,7.483,0,0,0-3.46,1.1l-1.182-2.194a10.528,10.528,0,0,1,5.317-1.519c3.207,0,5.064,1.688,5.064,5.148v6.5h-2.7l-.253-1.266h-.084A7.008,7.008,0,0,1,119.2,71.5C116.835,71.331,115.4,69.9,115.4,67.955Zm7.427-.253V65.845c-3.292.169-4.22.928-4.22,1.857,0,.76.591,1.1,1.519,1.1A4.75,4.75,0,0,0,122.827,67.7Z" transform="translate(-46.362 -53.861)" fill="#fff"/>
        <path id="Path_3027" data-name="Path 3027" d="M146.2,59.8h3.207l.675,5.233c.169,1.1.253,2.194.338,3.376h.084a21.674,21.674,0,0,1,.506-3.376l.675-3.714h2.448l.76,3.714c.253,1.1.422,2.194.591,3.376h.084c.169-1.182.169-2.194.338-3.376L156.5,59.8h3.123l-1.772,11.309H153.88l-.591-3.714c-.169-1.013-.253-2.026-.422-3.376h-.084c-.084.928-.169,1.941-.422,3.376l-.591,3.714h-3.882Z" transform="translate(-51.167 -53.892)" fill="#fff"/>
        <path id="Path_3028" data-name="Path 3028" d="M163.8,65.408a5.763,5.763,0,0,1,5.908-5.908c3.46,0,5.317,2.363,5.317,5.4a6.889,6.889,0,0,1-.169,1.519h-8.609V64.142h6.33l-.506.675c0-1.772-.76-2.785-2.279-2.785-1.688,0-2.785,1.1-2.785,3.376,0,2.363,1.266,3.376,3.46,3.376a5.841,5.841,0,0,0,2.87-.76l1.1,2.026a8.424,8.424,0,0,1-4.473,1.35C166.5,71.316,163.8,69.206,163.8,65.408Z" transform="translate(-53.913 -53.845)" fill="#fff"/>
        <path id="Path_3029" data-name="Path 3029" d="M183.454,69.07h-.084l-.253,1.266H180.5V54.3h3.376v3.882l-.084,1.772h.084A4.477,4.477,0,0,1,187,58.689c2.785,0,4.558,2.279,4.558,5.739,0,3.882-2.363,6.161-4.9,6.161A4.979,4.979,0,0,1,183.454,69.07Zm4.557-4.558c0-2.026-.675-3.038-2.11-3.038a3.257,3.257,0,0,0-2.11,1.013v4.558a2.721,2.721,0,0,0,1.941.76C187,67.8,188.011,66.791,188.011,64.512Z" transform="translate(-56.519 -53.034)" fill="#fff"/>
      </g>
    </g>
    <g id="Group_6409" data-name="Group 6409" transform="translate(1.7 1.7)">
      <rect id="Rectangle_586" data-name="Rectangle 586" width="117.82" height="39.245" fill="#fff" stroke="#2e3192" stroke-miterlimit="10" stroke-width="3"/>
      <g id="Group_6408" data-name="Group 6408" transform="translate(12.491 8.187)">
        <g id="Group_6407" data-name="Group 6407">
          <path id="Path_3030" data-name="Path 3030" d="M16.5,25.508A5.763,5.763,0,0,1,22.408,19.6c3.46,0,5.317,2.363,5.317,5.4a6.886,6.886,0,0,1-.169,1.519H19.032V24.242h6.33l-.506.675c0-1.772-.76-2.785-2.279-2.785-1.688,0-2.785,1.1-2.785,3.376,0,2.363,1.266,3.376,3.46,3.376a5.841,5.841,0,0,0,2.87-.76l1.1,2.026a8.424,8.424,0,0,1-4.473,1.35C19.285,31.5,16.5,29.306,16.5,25.508Z" transform="translate(-16.5 -12.679)" fill="#2e3192"/>
          <path id="Path_3031" data-name="Path 3031" d="M32.7,29.728l1.435-2.11a8.713,8.713,0,0,0,4.558,1.35c1.266,0,1.772-.422,1.772-.928,0-.591-.506-.844-2.785-1.35-3.038-.675-4.3-1.772-4.3-3.545,0-2.11,1.941-3.545,5.233-3.545a9.1,9.1,0,0,1,4.9,1.519l-1.519,2.026a7.567,7.567,0,0,0-3.714-1.1c-1.013,0-1.6.338-1.6.928s.675.76,2.616,1.182c3.46.76,4.473,1.772,4.473,3.629,0,2.026-1.941,3.629-5.57,3.629A9.821,9.821,0,0,1,32.7,29.728Z" transform="translate(-19.027 -12.679)" fill="#2e3192"/>
          <path id="Path_3032" data-name="Path 3032" d="M51.57,25.928V21.961H48.7V19.429l3.038-.169.422-3.46h2.785v3.545h4.726v2.616H54.945v3.967c0,1.688.76,2.363,2.363,2.363a5.645,5.645,0,0,0,2.194-.422l.591,2.448a11.4,11.4,0,0,1-3.714.591C52.92,30.907,51.57,28.882,51.57,25.928Z" transform="translate(-21.524 -12.086)" fill="#2e3192"/>
          <path id="Path_3033" data-name="Path 3033" d="M65.3,25.579V18.658h3.376v6.583c0,1.519.422,2.194,1.688,2.194a2.657,2.657,0,0,0,2.194-1.266V18.658h3.376V29.968h-2.7l-.253-1.6H72.9a4.757,4.757,0,0,1-3.8,1.857C66.4,30.221,65.3,28.448,65.3,25.579Zm3.545-10.043,3.46-4.136,2.279,2.194-4.136,3.545Z" transform="translate(-24.114 -11.4)" fill="#2e3192"/>
          <path id="Path_3034" data-name="Path 3034" d="M81.1,24.781c0-3.714,2.363-5.908,4.811-5.908a3.748,3.748,0,0,1,2.87,1.182h.084L88.7,18.282V14.4h3.376V30.351h-2.7l-.253-1.1h-.084a4.672,4.672,0,0,1-3.123,1.435C82.957,30.689,81.1,28.41,81.1,24.781Zm7.6,2.11V22.333a2.54,2.54,0,0,0-1.857-.76c-1.182,0-2.279,1.013-2.279,3.123,0,2.194.844,3.207,2.194,3.207A2.258,2.258,0,0,0,88.7,26.891Z" transform="translate(-26.579 -11.868)" fill="#2e3192"/>
          <path id="Path_3035" data-name="Path 3035" d="M102.758,21.509H98.2V18.892h7.933V30.2h-3.376Zm-.76-6.5a2.2,2.2,0,0,1,4.389,0,2.2,2.2,0,0,1-4.389,0Z" transform="translate(-29.246 -11.634)" fill="#2e3192"/>
          <path id="Path_3036" data-name="Path 3036" d="M113.5,25.608a5.742,5.742,0,1,1,11.478,0,5.742,5.742,0,1,1-11.478,0Zm8.1,0c0-1.941-.76-3.207-2.363-3.207-1.519,0-2.363,1.266-2.363,3.207s.76,3.207,2.363,3.207S121.6,27.549,121.6,25.608Z" transform="translate(-31.633 -12.695)" fill="#2e3192"/>
        </g>
      </g>
    </g>
  </g>
</svg>
