<?xml version="1.0" encoding="utf-8"?>
<!-- Generator: Adobe Illustrator 22.0.1, SVG Export Plug-In . SVG Version: 6.00 Build 0)  -->
<svg version="1.1" id="Camada_1" xmlns="http://www.w3.org/2000/svg" xmlns:xlink="http://www.w3.org/1999/xlink" x="0px" y="0px"
	 viewBox="0 0 414.3 289.3" style="enable-background:new 0 0 414.3 289.3;" xml:space="preserve">
<style type="text/css">
	.st0{fill:#2E3192;}
	.st1{fill:#FCAF17;}
	.st2{fill:#F26522;}
</style>
<g id="logo_VnW" transform="translate(22.203 15)">
	<g id="Group_1" transform="translate(0.015)">
		<path id="Path_1" class="st0" d="M153,98.9c11.5,0,20.8-9.3,20.8-20.8c0-11.5-9.3-20.8-20.8-20.8c-11.5,0-20.8,9.3-20.8,20.8
			c0,0,0,0.1,0,0.1c0,11.4,9.2,20.7,20.6,20.7C152.9,98.9,153,98.9,153,98.9z"/>
		<path id="Path_2" class="st0" d="M212.3,180c-8.4,0-16,5.1-19.2,12.8h38.2C228,185.4,220.9,180,212.3,180z"/>
		<path id="Path_3" class="st0" d="M322.8,221.7c11.5,0,20.8-9.4,20.7-20.9c0-11.5-9.4-20.8-20.9-20.7c-11.5,0-20.8,9.4-20.7,20.9
			c0,11.4,9.2,20.7,20.6,20.7C322.6,221.7,322.7,221.7,322.8,221.7z"/>
		<path id="Path_4" class="st0" d="M351.2,67.1c-6,0-10.9,4.9-10.9,11s4.9,10.9,11,10.9c6,0,10.9-4.9,10.9-10.9
			c0.1-6-4.7-10.9-10.7-11C351.4,67.1,351.3,67.1,351.2,67.1z"/>
		<path id="Path_5" class="st0" d="M258.2,37.6c0-2.2-0.4-4.3-1.1-6.3c8-15.6,1.9-34.7-13.6-42.7c-15.6-8-34.7-1.9-42.7,13.6
			c-1,1.9-1.8,3.9-2.4,6c-0.4,0-0.8-0.1-1.2-0.1H174c-6.2,0-11.9,3.2-15.2,8.4c-1.9-0.2-3.8-0.3-5.7-0.3c-12.5,0-24.6,3.8-34.9,10.9
			c-0.8-0.8-1.7-1.5-2.7-2.1l-20-12.4c-2.8-1.8-6.1-2.7-9.4-2.6c-6.2,0-11.9,3.2-15.2,8.4L50.8,50.9L30.7,18.5
			c-5.2-8.4-16.1-10.9-24.5-5.8l-19.9,12.4c-4,2.4-6.9,6.4-7.9,11c-1.1,4.6-0.3,9.4,2.1,13.4l54.8,88.7l-15.6,6.9
			c-8.9,4-13,14.4-9.1,23.4l39.6,90.1c2.9,6.4,9.2,10.6,16.3,10.6l0,0c7.1,0,13.5-4.2,16.3-10.7l12.6-28.9l12.6,28.9
			c2.8,6.5,9.2,10.7,16.3,10.7l0,0c7,0,13.4-4.2,16.3-10.6l12.4-28.3c7.9,26.1,31.9,43.9,59.1,43.9h3.5c9.8,0,17.8-8,17.8-17.8
			v-22.7h11.4c0.4,4.1,2.2,8,5.1,10.9l16.2,16.3c3.3,3.4,7.9,5.3,12.6,5.3l0,0c4.7,0,9.3-1.9,12.6-5.2l4.5-4.5
			c30.7,15,67.7,2.2,82.7-28.5c15-30.7,2.2-67.7-28.5-82.7c-8.4-4.1-17.7-6.3-27.1-6.2c-1,0-2,0-3.1,0.1v-8.2c1.8-0.1,3.5-0.4,5.2-1
			c6-2.2,10.4-7.4,11.5-13.7c4.5,1.8,9.4,2.7,14.2,2.7c3.2,2.7,7.3,4.3,11.5,4.3h12.2c9.8,0,17.8-8,17.8-17.8V50.6
			c0-9.8-8-17.8-17.8-17.8h-12.2c-4.3,0-8.4,1.5-11.6,4.4c-7.2,0.1-14.3,2.1-20.4,5.9c-3.2-2.6-7.2-4.1-11.3-4.1h-12.2
			c-3.1,0-6.2,0.8-8.9,2.3l-8-9.8c-3.4-4.1-8.4-6.4-13.7-6.4c-2,0-4.1,0.3-6,1c-7,2.6-11.7,9.2-11.7,16.7L258.2,37.6z M276,42.8
			l30.5,36.8V56.7h9.7c-8.9,14.5-7.8,33,2.6,46.4v10.2l-30.5-36.8v23h-12.2V42.8H276z M240.4,118.7h-23.2V37.6h23.2L240.4,118.7z
			 M228.9,2.8c7.7,0,13.9,6.2,13.9,13.9s-6.2,13.9-13.9,13.9c-7.7,0-13.9-6.2-13.9-13.9C215,9.1,221.2,2.8,228.9,2.8
			C228.9,2.8,228.9,2.8,228.9,2.8z M173.9,39.5V25.9h23.2v104.4h-23.2v-13.5c-6.4,3.6-13.6,5.4-20.9,5.4
			c-24.2,0-43.9-19.6-43.9-43.8c0,0,0-0.1,0-0.1c0-4,0.5-7.9,1.5-11.7l10.5-16.9c0.6-1,1.2-2.1,1.6-3.3c8.1-7.8,19-12.2,30.3-12.2
			C160.3,34,167.6,35.9,173.9,39.5z M15.6,27.8l35.2,56.9L86,27.8l18.9,11.7c-4.6,5.8-8.2,12.5-10.6,19.5l-43.5,70.5L-4.4,40.2
			L15.6,27.8z M124.4,251.5l-29-66.1l-29,66.1l-39.5-90l20.9-9.4l18.6,42.6l29-66.1l29,66.1l18.6-42.6l20.9,9.4l-1,2.2
			c-5.8,7.7-9.7,16.7-11.5,26.1L124.4,251.5z M191.7,216c1.7,10,10.3,17.3,20.4,17.4h3.5v23.1h-3.5c-24.2,0-43.9-19.6-43.9-43.8
			c0,0,0-0.1,0-0.1v-11.7c0-2,0.1-3.9,0.4-5.9l9.8-22.2c15.7-18.7,43.5-21.1,62.2-5.5c9.9,8.3,15.7,20.6,15.8,33.6v12.4l-2.7,2.7
			L191.7,216L191.7,216z M322.8,156.9c24.3,0,44.1,19.7,44.1,44c0,24.3-19.7,44.1-44,44.1c-10.9,0-21.4-4-29.5-11.3l-14.8,14.8
			l-15.8-16c4.9-2,8.6-6,10.3-11l5.5-5.5v-84.7h23.2v31C308.3,158.7,315.5,156.9,322.8,156.9L322.8,156.9z M374.4,105.5h-12.2v-7.1
			c-3.4,1.9-7.1,2.9-11,2.8c-5.3,0-10.4-1.8-14.5-5.2V60c4.1-3.4,9.2-5.2,14.5-5.2c3.8,0,7.6,1,11,2.8v-7.2h12.2V105.5z"/>
	</g>
	<g id="Group_5" transform="translate(17.801 17.7)">
		<g id="Group_2">
			<path id="Path_6" class="st1" d="M33,67l35.2-56.9l20,12.4L33,111.8l-55.2-89.3l20-12.4L33,67z"/>
			<path id="Path_7" class="st1" d="M179.4,8.2v104.4h-23.2V99c-6.4,3.6-13.6,5.4-20.9,5.4c-24.3,0-44-19.7-44-44.1
				c0-24.3,19.7-44,44-44c7.3-0.1,14.5,1.8,20.9,5.4V8.2H179.4z M114.5,60.5c0,11.5,9.3,20.8,20.8,20.8s20.8-9.3,20.8-20.8
				s-9.3-20.8-20.8-20.8S114.5,49,114.5,60.5L114.5,60.5z"/>
			<path id="Path_8" class="st1" d="M211.1,12.9c-7.7,0-13.9-6.2-13.9-13.9c0-7.7,6.2-13.9,13.9-13.9s13.9,6.2,13.9,13.9
				c0,0,0,0,0,0C225.1,6.6,218.9,12.8,211.1,12.9C211.2,12.9,211.2,12.9,211.1,12.9z M222.6,101h-23.2V19.9h23.2V101z"/>
		</g>
		<g id="Group_4" transform="translate(31.331 125.934)">
			<g id="Group_3">
				<path id="Path_9" class="st1" d="M17.4,51.1l29-66.1l29,66.1L94,8.5l20.9,9.4l-39.6,90l-29-66.1l-29,66.1l-39.5-90l20.9-9.4
					L17.4,51.1z"/>
				<path id="Path_10" class="st1" d="M163,89.8h3.5v23.1H163c-24.2,0-43.9-19.6-43.9-43.8c0,0,0-0.1,0-0.1V57.2
					c0-24.3,19.7-44,44-44s44,19.7,44,44v15.2h-64.6C144.3,82.3,152.9,89.6,163,89.8z M163.2,36.4c-8.4,0-16,5.1-19.2,12.8h38.3
					C178.9,41.8,171.8,36.4,163.2,36.4L163.2,36.4z"/>
				<path id="Path_11" class="st1" d="M273.7,13.3c24.3,0,44.1,19.7,44.1,44c0,24.3-19.7,44.1-44,44.1c-10.9,0-21.4-4-29.5-11.3
					l-14.8,14.8l-16.2-16.3l16.2-16.2v-84.7h23.2v31C259.1,15.1,266.4,13.2,273.7,13.3z M252.8,57.3c0,11.5,9.3,20.9,20.9,20.9
					c11.5,0,20.9-9.3,20.9-20.9c0-11.5-9.3-20.9-20.9-20.9l0,0c-11.4-0.1-20.8,9.2-20.9,20.6C252.8,57.2,252.8,57.2,252.8,57.3
					L252.8,57.3z"/>
			</g>
		</g>
	</g>
	<g id="Group_6" transform="translate(298.355 57.779)">
		<path id="Path_12" class="st2" d="M20.5,55.5L-10,18.7v23h-12.2V-15L8.3,21.8V-1.1h12.2V55.5z"/>
		<path id="Path_13" class="st2" d="M76-7.3v54.9H63.8v-7.1c-3.4,1.9-7.1,2.9-11,2.8C40,43.4,29.7,33,29.7,20.2S40-3,52.9-3
			c3.8,0,7.6,1,11,2.8v-7.2L76-7.3L76-7.3z M42,20.3c0,6,4.9,10.9,11,10.9c6,0,10.9-4.9,10.9-11c0-6-4.9-10.9-11-10.9
			c-6,0-10.9,4.8-10.9,10.8C42,20.2,42,20.2,42,20.3z"/>
	</g>
</g>
</svg>
